<svg width="121" height="95" viewBox="0 0 121 95" fill="none" xmlns="http://www.w3.org/2000/svg">
<g clip-path="url(#clip0_342_1741)">
<path d="M81.41 45.4283C81.3488 45.4116 81.2877 45.3952 81.2266 45.379C81.2426 45.1914 81.2585 45.0035 81.2745 44.816C81.3196 44.8156 81.3648 44.8175 81.41 44.8213V45.4283Z" fill="#325AFF"/>
<path d="M81.4128 44.8214C81.3678 44.8173 81.3226 44.8154 81.2774 44.8161C81.2109 44.7277 81.1446 44.6389 81.0781 44.5501C81.1897 44.5394 81.3013 44.5284 81.4128 44.5178V44.8214Z" fill="#325AFF"/>
<path d="M71.5446 55.7796C71.5431 55.9595 71.5788 56.119 71.6892 56.2757C72.5152 57.4475 72.9764 58.7775 73.3412 60.1466C73.5871 61.0693 73.8585 61.9875 74.0536 62.9212C74.2434 63.8285 74.4704 64.7353 74.4332 65.6786C74.4123 66.2088 74.4032 66.7421 74.4351 67.2712C74.4962 68.29 74.3513 69.2955 74.0882 70.2592C73.764 71.4469 73.4961 72.6468 73.1829 73.8363C73.151 73.9578 73.1237 74.0941 73.0504 74.1893C72.6387 74.7242 72.5475 75.3876 72.3091 75.9912C72.2814 76.0614 72.2727 76.1411 72.2363 76.2056C71.8173 76.953 71.4847 77.7482 71.0691 78.4911C70.7153 79.123 70.2951 79.7217 69.9861 80.3829C69.3389 81.0497 68.9734 81.9527 68.2116 82.5217C67.5762 82.9963 66.8869 83.3519 66.0678 83.3671C65.8401 83.3712 65.6119 83.3583 65.3849 83.3704C64.8706 83.3979 64.3962 83.312 63.9258 83.0668C63.3918 82.7882 62.8027 82.6177 62.2572 82.3589C61.757 82.1213 61.2874 81.8195 60.7955 81.5633C60.4634 81.3906 60.096 81.3003 59.8128 81.0175C59.6382 80.8432 59.3763 80.7731 59.109 80.786C58.7079 80.8057 58.3105 80.7761 57.9074 80.8904C57.6006 80.9773 57.2556 80.9294 56.9276 80.9397C56.4756 80.9537 56.027 80.9253 55.5748 81.0527C55.2955 81.1318 54.9539 81.1295 54.676 81.0452C54.1981 80.9002 53.7229 80.9651 53.2465 80.9412C52.9911 80.9283 52.815 81.0426 52.7064 81.2759C52.6002 81.5053 52.4464 81.7179 52.3739 81.9562C52.1655 82.644 51.7229 83.2061 51.4098 83.8359C51.1084 84.4416 50.6605 84.9498 50.3359 85.5417C49.9472 86.2496 49.3696 86.8254 48.8758 87.46C48.2505 88.2635 47.4915 88.929 46.8021 89.665C46.2958 90.2054 45.6566 90.5714 45.0523 90.9756C44.5095 91.3389 43.9139 91.6266 43.329 91.9234C42.9476 92.117 42.5505 92.2844 42.1482 92.4305C41.7698 92.5683 41.3742 92.6563 41.0474 92.913C40.9704 92.9737 40.8693 93.0215 40.773 93.0379C40.0036 93.1665 39.2755 93.4656 38.4922 93.5499C37.9953 93.6034 37.5128 93.7772 37.0197 93.8763C36.3555 94.0095 35.6908 94.1465 35.0073 94.1424C34.3495 94.1386 33.6913 94.1238 33.0342 94.1462C32.2663 94.1728 31.5311 94.0229 30.8057 93.8012C30.0591 93.5727 29.316 93.3321 28.5716 93.0951C28.4516 93.0568 28.3263 93.0253 28.2178 92.9649C27.0066 92.2897 25.7801 91.6387 24.5955 90.9194C23.9332 90.5175 23.3141 90.0312 22.7246 89.5257C22.131 89.0167 21.5885 88.4465 21.0431 87.8844C20.7459 87.5781 20.4699 87.2463 20.2214 86.9002C20.0339 86.6389 19.8911 86.3448 19.721 86.0697C19.3012 85.3909 18.9638 84.6617 18.5766 83.9618C18.3105 83.4809 18.0509 82.997 17.8232 82.4971C17.677 82.1764 17.54 81.8506 17.4129 81.5216C17.2906 81.2054 17.0409 81.0418 16.7391 80.9651C15.8634 80.7419 14.982 80.5404 14.1052 80.321C13.9364 80.2788 13.7674 80.2128 13.6167 80.1255C12.8713 79.6935 12.0544 79.4415 11.2452 79.1288C10.8774 79.4571 10.4678 79.7126 10.3258 80.2169C10.2871 80.3548 10.171 80.4766 10.0738 80.5916C9.74166 80.9845 9.56402 81.4419 9.43762 81.936C9.23873 82.7135 9.00302 83.4813 8.7821 84.253C8.76806 84.3015 8.73542 84.3475 8.73277 84.3957C8.68797 85.2744 8.43821 86.1437 8.55132 87.0273C8.71416 88.3012 8.9734 89.5454 9.66537 90.6697C10.0916 91.3624 10.5854 91.9891 11.1468 92.5698C11.3051 92.7334 11.4729 92.8879 11.6278 93.0549C11.95 93.4029 11.9511 93.7689 11.6384 94.1314C11.487 94.3072 11.2725 94.3341 11.0808 94.2802C10.8166 94.2061 10.5642 94.0832 10.3171 93.9594C10.1379 93.8699 9.98763 93.7169 9.8043 93.6414C8.71074 93.1889 7.97816 92.3333 7.24824 91.4524C6.9237 91.0602 6.6356 90.6518 6.3847 90.2176C6.21048 89.9162 6.0989 89.5788 5.96035 89.2569C5.95087 89.2345 5.95958 89.2027 5.94743 89.1828C5.54812 88.5406 5.51776 87.8031 5.4073 87.0869C5.38073 86.9131 5.36251 86.7369 5.35833 86.5615C5.35074 86.2328 5.35303 85.9041 5.35645 85.5754C5.36783 84.4883 5.47867 83.4209 5.90038 82.4006C6.04348 82.0541 6.12015 81.6795 6.22377 81.317C6.36991 80.806 6.52554 80.3005 6.86905 79.8776C6.91574 79.82 6.95066 79.7475 6.97344 79.676C7.22244 78.8942 7.69992 78.2421 8.15845 77.5785C8.19869 77.5201 8.20629 77.4389 8.24273 77.325C8.141 77.2358 8.04117 77.1276 7.92198 77.0475C6.69558 76.2247 5.69198 75.1542 4.67967 74.0989C4.35323 73.7589 4.13649 73.3159 3.85257 72.9325C2.99321 71.7726 2.37869 70.4836 1.86208 69.1459C1.70836 68.7482 1.52199 68.3659 1.37888 67.9602C0.908216 66.6226 0.789401 65.2086 0.412104 63.8513C0.261033 63.3081 0.135403 62.7247 0.192719 62.1364C0.202587 62.0365 0.212449 61.9276 0.185119 61.8342C-0.0570487 61.0158 0.0742951 60.1777 0.0446883 59.3488C0.0329215 59.0204 0.0534148 58.691 0.0408888 58.3626C0.00444976 57.4258 0.180196 56.5133 0.3009 55.591C0.380991 54.9799 0.624287 54.4332 0.764729 53.8494C0.905552 53.2627 1.09345 52.6865 1.28058 52.1122C1.34207 51.9239 1.46581 51.7561 1.56031 51.5785C1.74934 51.2221 1.97862 50.8796 2.11413 50.5035C2.22876 50.1855 2.40222 49.9121 2.5958 49.6548C3.13973 48.9314 3.70834 48.2265 4.27049 47.517C4.34869 47.4187 4.43257 47.3125 4.53771 47.2502C5.00269 46.9754 5.33557 46.5552 5.73033 46.2033C5.97363 45.9866 6.23553 45.7809 6.51679 45.618C7.80658 44.871 9.1317 44.2231 10.5934 43.8447C11.5306 43.6021 12.4537 43.415 13.4213 43.4544C13.7496 43.4678 14.079 43.4598 14.4078 43.4564C15.2717 43.4473 16.1045 43.6351 16.9319 43.855C16.9805 43.8679 17.0306 43.8803 17.0755 43.9023C17.7969 44.2569 18.5238 44.6011 19.2363 44.9732C19.6793 45.2044 20.1002 45.4784 20.5599 45.7506C20.8988 45.4784 21.2074 45.2241 21.5229 44.9785C21.86 44.7158 22.1898 44.4402 22.5465 44.2071C23.2625 43.7395 23.995 43.2965 24.7208 42.8441C24.8278 42.7773 24.9311 42.7022 25.0453 42.6509C26.5625 41.9688 28.0892 41.3429 29.735 40.988C30.9663 40.7223 32.1905 40.676 33.418 40.7503C34.1334 40.7937 34.8497 41.0301 35.5371 41.2628C36.1288 41.4628 36.7131 41.7057 37.238 42.0766C37.5133 42.2713 37.8317 42.4391 38.2637 42.5215C38.2207 42.3727 38.2211 42.268 38.1691 42.2121C37.8943 41.9152 37.6001 41.6367 37.325 41.3402C37.12 41.1193 36.9336 40.8814 36.7396 40.6505C36.7233 40.6312 36.7157 40.6035 36.6975 40.588C36.1414 40.1199 35.6207 39.6159 35.1363 39.0734C35.0376 38.9629 34.8547 38.909 34.7928 38.7872C34.5851 38.3792 34.1688 38.2099 33.8629 37.9168C33.5725 37.639 33.2555 37.3893 32.9518 37.1254C32.6391 36.8532 32.6136 36.5211 32.7704 36.1632C32.9743 35.6982 33.2305 35.2614 33.5854 34.8966C34.2208 34.2445 34.8676 33.6034 35.5182 32.9665C35.6605 32.8272 35.8457 32.733 36.0006 32.6055C36.6417 32.0779 37.2843 31.5514 37.9163 31.0128C38.932 30.1477 39.9637 29.3017 41.0482 28.5258C41.7014 28.0586 42.4128 27.6722 43.0948 27.2444C43.414 27.0443 43.7132 26.8094 44.0433 26.631C44.3524 26.4644 44.6901 26.3505 45.0166 26.2165C45.1559 26.1592 45.3282 26.1429 45.4334 26.0495C46.0551 25.4972 46.869 25.4778 47.6057 25.2573C48.0839 25.1142 48.5869 25.0482 49.0826 24.9734C49.3305 24.9358 49.5943 24.913 49.838 24.9567C50.8522 25.1377 51.8729 25.2994 52.8411 25.6741C52.9577 25.7193 53.1061 25.7348 53.1846 25.8168C53.4963 26.1425 53.9115 26.2556 54.3036 26.4279C54.6942 26.5995 55.0893 26.7684 55.409 27.0766C55.5494 27.2121 55.7487 27.2933 55.9312 27.3772C56.6517 27.7094 57.2586 28.1918 57.82 28.7452C58.504 29.4193 59.1838 30.095 59.6895 30.9202C60.0841 31.5647 60.5161 32.1925 60.8471 32.8689C61.2677 33.7275 61.6435 34.6134 61.8894 35.5434C61.9726 35.8573 62.0249 36.1814 62.0641 36.5041C62.1335 37.0769 62.3194 37.6344 62.2872 38.2205C62.283 38.2961 62.2744 38.3769 62.2948 38.4472C62.5529 39.341 62.4 40.2554 62.4303 41.1603C62.4379 41.3827 62.3775 41.6074 62.3453 41.8307C62.3309 41.9301 62.285 42.031 62.2948 42.127C62.3605 42.7644 62.1832 43.3796 62.1187 44.0033C62.0489 44.6752 61.8769 45.3361 61.7684 46.0048C61.5057 47.6225 60.9588 49.169 60.5868 50.7593C60.5526 50.9063 60.518 51.0631 60.4395 51.1875C60.0705 51.7736 59.9445 52.45 59.7084 53.0854C59.5596 53.4862 59.4085 53.8776 59.199 54.2586C58.9348 54.7388 58.8039 55.2907 58.6027 55.8066C58.4945 56.0844 58.4034 56.3607 58.1939 56.6056C57.9696 56.8679 57.8048 57.2018 57.6887 57.5306C57.4465 58.2153 56.9983 58.763 56.5302 59.2808C55.9742 59.8965 55.409 60.5163 54.7029 60.9783C54.6404 61.0193 54.5967 61.0967 54.5307 61.1252C53.4655 61.5814 52.6161 62.4506 51.4573 62.7285C51.3388 62.7569 51.2279 62.8276 51.1205 62.8906C50.3538 63.3403 49.5461 63.6645 48.662 63.8205C48.0703 63.9249 47.4945 64.1207 46.9445 64.2669C46.5133 64.8385 46.4264 65.5005 46.2104 66.1108C46.0342 66.6081 45.9382 67.1456 45.6922 67.6038C45.403 68.1424 45.28 68.7398 44.9939 69.2727C44.982 69.2944 44.9847 69.3232 44.9741 69.3455C44.5103 70.2956 44.079 71.2636 43.5697 72.1886C43.1954 72.8685 42.7168 73.4905 42.2886 74.1408C42.2263 74.2356 42.1854 74.3446 42.1022 74.5119C42.4268 74.4694 42.678 74.4668 42.9112 74.4007C43.8327 74.1404 44.7793 74.2177 45.6987 74.2956C46.642 74.3754 47.5833 74.5791 48.5038 74.8517C49.4899 75.144 50.4939 75.3755 51.5096 75.6381C51.7996 75.2203 51.9985 74.7929 52.1499 74.3461C52.3439 73.7741 52.5421 73.2013 52.6893 72.6163C52.8514 71.9718 53.2845 71.4522 53.4618 70.8187C53.7032 69.9556 54.2823 69.259 54.6404 68.4528C54.9144 67.8353 55.3103 67.8065 55.9711 67.9461C56.2102 67.9966 56.4577 68.1242 56.6434 68.2839C56.8995 68.5044 57.1911 68.6282 57.4876 68.766C57.7365 68.8817 57.9916 69.0149 58.1923 69.1972C59.0145 69.9423 59.8147 70.7116 60.6288 71.4658C60.9055 71.7221 61.2024 71.9559 61.484 72.2064C61.5965 72.3062 61.6989 72.4186 61.7949 72.5344C61.891 72.6502 61.9585 72.7921 62.0641 72.8973C62.836 73.6689 63.2753 74.6231 63.5781 75.65C63.6268 75.8147 63.6833 76.0215 63.6268 76.1661C63.3261 76.9355 63.1857 77.7675 62.7162 78.4732C62.4186 78.9203 62.08 79.3148 61.6245 79.6089C61.4818 79.7012 61.3721 79.8438 61.2115 79.9975C61.3307 80.1248 61.4089 80.2588 61.5258 80.3243C61.9445 80.5605 62.381 80.7522 62.8721 80.7985C63.1208 80.822 63.3637 80.9226 63.6116 80.9351C64.6174 80.9864 65.498 80.674 66.2211 79.9623C66.5779 79.6112 66.9439 79.2779 67.1332 78.7787C67.2551 78.4569 67.4825 78.162 67.711 77.8962C68.0317 77.5235 68.2439 77.1094 68.3984 76.6475C68.4853 76.3875 68.6266 76.1385 68.7803 75.9096C69.0227 75.5494 69.1931 75.1634 69.3348 74.7549C69.4741 74.3533 69.5838 73.9426 69.8135 73.5679C69.9804 73.2954 70.0613 72.9603 70.1353 72.6426C70.3178 71.8603 70.4633 71.0692 70.6466 70.2869C70.7381 69.8972 70.8899 69.5217 70.9962 69.1349C71.049 68.9433 71.0611 68.7402 71.0902 68.542C71.1268 68.2941 71.1658 68.0467 71.1962 67.7984C71.2178 67.6238 71.2391 67.4477 71.2403 67.272C71.2448 66.4627 71.2855 65.6504 71.23 64.845C71.1735 64.0213 71.0607 63.1977 70.8485 62.3937C70.5794 61.3738 70.3315 60.3474 70.0351 59.335C69.6442 58.0009 69.1734 56.6986 68.196 55.6532C68.0739 55.5226 68.0491 55.3929 68.2238 55.2812C68.5111 55.3534 68.7973 55.4331 69.0869 55.496C69.5651 55.5997 70.0241 55.8517 70.538 55.6954C70.874 55.7238 71.2099 55.7527 71.5458 55.7811L71.5446 55.7796ZM5.97477 71.0108C5.92808 71.3311 6.05068 71.6002 6.22415 71.8573C6.50427 72.2721 6.77529 72.6931 7.05579 73.1079C7.69159 74.0481 8.43971 74.893 9.26718 75.6677C9.60919 75.9881 9.65664 76.0053 10.037 75.7327C10.6116 75.3212 11.2452 75.1645 11.9435 75.1675C12.8177 75.1713 13.6235 75.418 14.3979 75.7915C14.6423 75.9096 14.8769 76.022 15.1331 76.0102C15.255 75.7892 15.2125 75.629 15.1213 75.4666C15.0485 75.3371 14.9605 75.2066 14.9289 75.0658C14.7441 74.2349 14.3918 73.4488 14.2817 72.5966C14.2536 72.3787 14.1439 72.1552 13.857 72.1363C13.8699 72.0121 13.8517 71.8735 13.9007 71.7661C14.1899 71.1322 14.4947 70.5056 14.7942 69.8762C15.0967 69.7456 15.2049 69.5153 15.1422 69.1976C15.3636 68.8036 15.5897 68.4122 15.8039 68.0145C15.9932 67.6633 15.9546 67.3448 15.6558 67.0586C15.2573 66.6764 14.8697 66.2824 14.4776 65.8937C14.2594 65.4094 13.906 65.1027 13.3636 65.0427C13.3248 65.0306 13.2861 65.0185 13.2474 65.0066C13.1981 64.7346 13.0702 64.5531 12.7589 64.5835C12.6719 64.5049 12.585 64.426 12.4981 64.3474C12.5463 64.0012 12.6215 63.6562 12.6378 63.3081C12.7012 61.9511 12.5236 60.5873 12.7859 59.2341C12.8857 58.719 12.9009 58.188 12.9593 57.6646C12.9676 57.5913 12.9843 57.5074 13.0276 57.4517C13.2858 57.1161 13.307 56.7028 13.4004 56.3171C13.6748 55.1867 14.1277 54.1315 14.705 53.1272C15.006 52.6033 15.3692 52.1099 15.6179 51.5633C15.9568 50.8194 16.4692 50.1984 16.9535 49.5656C17.5943 48.7287 18.3307 47.9657 19.0146 47.161C19.1 47.0608 19.1156 46.901 19.1683 46.7545C19.0014 46.6557 18.8799 46.5605 18.7426 46.5063C17.8744 46.1635 17.0045 45.8298 16.0426 45.8815C15.715 45.8989 15.3852 45.8709 15.0576 45.8879C14.7836 45.9023 14.5102 45.9452 14.2385 45.9892C13.8669 46.0493 13.4908 46.0982 13.1282 46.1954C12.4988 46.3647 11.8604 46.5233 11.2588 46.7682C10.6568 47.0133 10.1045 47.3773 9.5143 47.6556C8.59231 48.0898 7.78875 48.6847 7.07895 49.4054C6.69141 49.7991 6.3274 50.2189 5.98275 50.6504C5.13022 51.7189 4.37979 52.8356 4.10347 54.2211C3.98693 54.8057 3.8818 55.4095 3.59635 55.9535C3.55195 56.0384 3.55043 56.1481 3.5379 56.2472C3.44187 57.0208 3.33673 57.7929 3.37545 58.5767C3.38381 58.7483 3.34129 58.9267 3.29954 59.0959C3.20047 59.496 3.20881 59.89 3.29725 60.2924C3.35078 60.5357 3.3671 60.7892 3.37849 61.039C3.40544 61.6406 3.31092 62.2517 3.525 62.8385C3.47983 63.6592 3.8036 64.4169 3.93076 65.2078C3.97441 65.48 3.96871 65.7689 4.05906 66.0236C4.33652 66.8059 4.42269 67.6344 4.71914 68.4171C5.00344 69.1672 5.27634 69.9161 5.66276 70.6198C5.76676 70.75 5.87076 70.8806 5.97477 71.0108ZM34.6364 60.3121C34.5051 60.0206 34.2963 59.9246 34.1122 59.7909C33.2775 59.1856 32.4132 58.612 31.6344 57.9405C30.6232 57.0686 29.681 56.117 28.7127 55.1958C27.5797 54.1178 26.4528 53.0338 25.3194 51.9562C24.3875 51.0702 23.4503 50.1896 22.5151 49.3071C22.46 49.2551 22.4054 49.2004 22.3417 49.1606C22.1541 49.0426 21.9563 49.0373 21.7715 49.1584C21.6671 49.2266 21.5794 49.3219 21.4892 49.4096C20.4555 50.4117 19.5214 51.495 18.7623 52.7233C18.6306 52.9366 18.4658 53.1295 18.3205 53.3348C18.0448 53.7238 17.7329 54.089 17.6144 54.573C17.5737 54.7385 17.447 54.8816 17.3692 55.0395C17.2474 55.2862 17.1187 55.5309 17.0184 55.7864C16.659 56.7035 16.5323 57.6832 16.2654 58.6257C16.0802 59.2801 15.9955 59.9656 16.0001 60.6336C16.0111 62.2191 15.8923 63.8046 16.1079 65.3943C16.2293 66.2896 16.3565 67.1812 16.5235 68.0687C16.5467 68.192 16.5675 68.3158 16.5872 68.4396C16.7114 69.2067 16.7843 69.9859 16.9691 70.7383C17.3525 72.2994 17.8145 73.8416 18.1985 75.4028C18.2908 75.7782 18.5106 76.083 18.6054 76.4482C18.7254 76.9101 18.8841 77.3621 19.0151 77.8215C19.0678 78.0063 19.1703 78.1316 19.3407 78.2128C20.0896 78.5692 20.8222 78.9663 21.5904 79.2756C22.3826 79.5944 23.201 79.8564 24.0231 80.089C24.5017 80.2245 25.012 80.3266 25.5057 80.3175C26.9655 80.291 28.4262 80.4318 29.8887 80.2029C30.7135 80.0738 31.5338 79.9129 32.3077 79.6476C33.3834 79.2787 34.3513 78.6421 35.1924 77.8769C36.2359 76.9279 37.2206 75.9126 38.0411 74.753C38.3524 74.313 38.3611 74.222 37.9835 73.8742C37.9276 73.8231 37.8712 73.7721 37.8111 73.7263C37.1105 73.191 36.4242 72.6403 35.8104 72.0038C35.5124 71.6944 35.2001 71.3987 34.9014 71.0897C34.7617 70.9456 34.6242 70.7948 34.5115 70.6294C34.171 70.1298 33.8215 69.6341 33.5159 69.1133C33.112 68.424 32.6409 67.7522 32.6684 66.8951C32.3437 65.9799 32.6478 65.1042 32.8668 64.2335C32.9693 63.8255 33.1936 63.4489 33.3539 63.0546C33.6468 62.3326 33.8556 61.5746 34.33 60.9335C34.4622 60.7551 34.5312 60.5304 34.6364 60.3121ZM59.0966 39.718C59.0574 39.0799 59.1219 38.3044 58.9766 37.5206C58.8764 36.982 58.903 36.4183 58.6752 35.8986C58.6555 35.8539 58.6464 35.7992 58.6498 35.7502C58.6907 35.176 58.4425 34.6556 58.2721 34.1409C57.9958 33.3069 57.6246 32.4965 57.2134 31.7184C56.9952 31.3051 56.668 30.9395 56.3966 30.5467C55.8792 29.7982 55.2321 29.1529 54.5625 28.5376C54.2866 28.284 53.9912 27.9967 53.6512 27.879C53.1106 27.6919 52.5292 27.5833 51.9575 27.5351C51.2815 27.4786 50.6031 27.5127 49.9313 27.7006C49.3483 27.8638 48.7687 28.0107 48.2343 28.3095C48.0172 28.4305 47.7613 28.4814 47.5267 28.5733C47.1756 28.7107 46.7778 28.7919 46.4901 29.014C46.0616 29.3446 45.575 29.5454 45.1157 29.8057C44.8978 29.9295 44.6875 30.0692 44.4836 30.2157C43.8502 30.6712 43.2163 31.1301 42.5779 31.5742C41.9333 32.0228 41.356 32.5387 40.7548 33.0321C40.5023 33.2394 40.2541 33.4519 40.0009 33.6584C39.7082 33.8968 39.3887 34.1075 39.1218 34.3716C38.6003 34.8878 38.0161 35.3233 37.4471 35.7806C37.0353 36.1112 36.6759 36.509 36.3073 36.8905C36.1334 37.0704 36.1425 37.2462 36.3077 37.4302C36.425 37.5612 36.5608 37.6766 36.6949 37.7909C36.9052 37.97 37.137 38.1268 37.3326 38.3207C38.5718 39.5498 39.8039 40.7861 41.0364 42.0219C41.1787 42.1647 41.3263 42.3077 41.4415 42.4714C41.947 43.1906 42.5638 43.823 43.0208 44.5844C43.3161 45.0763 43.7385 45.4916 43.9955 46.017C44.1937 46.4227 44.3664 46.8455 44.6089 47.2236C44.8758 47.6389 45.0075 48.0989 45.1058 48.5601C45.1654 48.8395 45.2345 49.0839 45.3988 49.3178C45.7625 49.8358 46.0486 50.3943 46.2566 50.9966C46.4449 51.542 46.6784 52.072 46.891 52.6091C46.9095 52.6557 46.9248 52.7044 46.9354 52.7532C47.2258 54.078 47.6125 55.3875 47.5605 56.7653C47.7556 57.5621 47.704 58.3528 47.5731 59.1575C47.485 59.6987 47.6232 60.2654 47.4391 60.8082C47.3912 60.949 47.6019 61.0875 47.7476 61.0196C47.9291 60.935 48.0968 60.8166 48.2839 60.7505C49.2607 60.4043 50.2217 60.0285 51.0898 59.4471C51.7799 58.9847 52.4885 58.5502 53.1702 58.076C53.3934 57.9208 53.5771 57.6961 53.7453 57.4778C54.1135 56.9999 54.4426 56.4913 54.8203 56.0214C55.2066 55.5409 55.4815 55.022 55.631 54.4196C55.721 54.0564 55.863 53.6927 56.0512 53.3701C56.4377 52.7074 56.6449 51.9873 56.8346 51.2559C56.8912 51.0373 56.9382 50.7992 57.0602 50.6174C57.3209 50.2287 57.4105 49.7819 57.5521 49.355C57.686 48.9503 57.7722 48.529 57.8667 48.1118C58.2337 46.4964 58.7397 44.9075 58.8065 43.234C59.0142 42.8058 58.8673 42.3256 58.994 41.8937C59.0897 41.5676 59.0931 41.2476 59.0961 40.9204C59.0992 40.5663 59.0966 40.2122 59.0966 39.718ZM20.8526 82.0579C20.9547 82.3688 21.0108 82.6136 21.1133 82.8376C21.4162 83.4983 21.7331 84.1531 22.0536 84.806C22.1856 85.0751 22.3268 85.3413 22.487 85.594C22.9455 86.3152 23.3786 87.055 23.9313 87.7113C24.3367 88.1926 24.7087 88.7183 25.1846 89.1191C25.7396 89.5864 26.2664 90.1022 26.9174 90.4529C27.1368 90.5709 27.311 90.7832 27.5372 90.8762C28.7819 91.3878 30.091 91.643 31.4282 91.7029C32.2044 91.7378 32.9822 91.7378 33.7653 91.594C34.2504 91.5047 34.7624 91.4926 35.2574 91.4049C35.4552 91.37 35.6465 91.2922 35.845 91.2694C37.1567 91.1195 38.3946 90.7099 39.6114 90.2218C39.9622 90.081 40.3448 90.0027 40.6697 89.8202C41.4764 89.367 42.3694 89.0599 43.0702 88.4256C43.9538 88.0431 44.5763 87.337 45.2357 86.677C45.6467 86.2655 46.0916 85.8817 46.4593 85.4346C47.2266 84.5024 47.8714 83.4794 48.5361 82.4728C48.6329 82.3258 48.7107 82.163 48.8253 82.0321C49.269 81.5246 49.4174 80.8915 49.6591 80.2469C49.1065 80.026 48.601 79.8078 48.0844 79.6214C47.4227 79.3826 46.7221 79.2422 46.1439 78.8015C46.0475 78.7282 45.9071 78.7161 45.7963 78.6581C45.1761 78.3316 44.4826 78.1745 43.9079 77.724C43.5644 77.4548 43.091 77.3106 42.6261 77.5671C42.1182 77.8473 41.5876 78.0928 41.1066 78.4132C40.3991 78.8847 39.7952 79.5068 39.0061 79.8628C38.7073 80.2644 38.2261 80.4109 37.8411 80.6933C36.8326 81.4335 35.6221 81.755 34.5077 82.2765C34.4641 82.297 34.4083 82.2909 34.359 82.3012C34.0146 82.373 33.6719 82.4527 33.3261 82.5164C32.4634 82.6755 31.6206 82.9594 30.7249 82.9199C30.5537 82.9124 30.3798 82.9935 30.206 83.0004C29.7038 83.0193 29.1922 83.0812 28.7014 83.0087C28.3503 82.9567 28.0045 82.9222 27.6527 82.9131C27.4758 82.9086 27.292 82.9316 27.1235 82.8911C25.9942 82.6204 24.827 82.6516 23.6917 82.4481C23.051 82.3334 22.3837 82.3536 21.7711 82.0879C21.5058 81.9729 21.2352 81.9842 20.8526 82.0579ZM23.5357 47.6644C24.2129 48.2534 24.7709 48.8042 25.3953 49.2653C26.1704 49.8373 26.8259 50.5384 27.5395 51.1727C29.1432 52.598 30.5317 54.2503 32.1776 55.6403C33.082 56.4044 33.914 57.2546 34.7758 58.0688C34.9803 58.262 35.1921 58.4298 35.5192 58.4393C35.5918 58.3372 35.6984 58.2464 35.728 58.1349C35.8993 57.4889 36.3274 56.9794 36.6542 56.4226C37.315 55.2971 37.988 54.1774 38.7316 53.1002C39.1742 52.4591 39.7189 51.8886 40.0738 51.186C40.1068 51.1207 40.1675 51.0653 40.226 51.0183C40.787 50.5647 41.096 49.9103 41.5404 49.3636C41.9101 48.9089 41.8935 48.4227 41.5101 47.9771C40.8238 47.1789 40.1687 46.3559 39.3773 45.6457C38.7571 45.0893 38.1255 44.5564 37.4691 44.044C36.8622 43.5702 36.195 43.3611 35.4506 43.3007C35.0509 43.2681 34.6538 43.1645 34.2554 43.1645C33.8568 43.1645 33.4582 43.2973 33.0604 43.2927C32.5211 43.2863 32.0063 43.4078 31.498 43.5327C30.8893 43.6822 30.2994 43.9119 29.7042 44.1153C28.8464 44.4087 28.0166 44.7518 27.2086 45.18C26.2004 45.7145 25.2526 46.3317 24.3116 46.9651C24.0459 47.144 23.8288 47.396 23.5357 47.6644ZM37.6271 61.8164C37.3572 62.1526 37.1355 62.4526 36.9803 62.7994C36.6417 63.5563 36.491 64.3868 36.0689 65.1107C36.0446 65.1521 36.0396 65.2067 36.0325 65.2561C35.9794 65.6281 35.9125 65.9989 35.8806 66.3727C35.8594 66.6226 35.875 66.8776 35.8966 67.1285C35.9698 67.9757 36.4048 68.6927 36.7544 69.4382C36.882 69.71 37.0498 69.9658 37.2217 70.2137C37.7425 70.9645 38.4192 71.5744 39.0611 72.2156C39.1147 72.269 39.1719 72.32 39.2342 72.3625C39.3841 72.4653 39.6081 72.4406 39.7097 72.2915C39.964 71.9184 40.2264 71.5487 40.4488 71.1566C40.8455 70.4581 41.2174 69.7456 41.5932 69.0359C41.6753 68.881 41.7276 68.7106 41.7959 68.5481C42.0977 67.8341 42.2036 67.0412 42.6709 66.3932C42.7123 66.336 42.7096 66.2479 42.732 66.1758C42.9165 65.575 43.1058 64.9755 43.2838 64.3728C43.3108 64.2817 43.2876 64.1758 43.2876 64.0297C43.0436 63.9491 42.8109 63.8649 42.5733 63.7954C42.0908 63.6546 41.6099 63.5051 41.121 63.3905C40.4249 63.2276 39.8575 62.7748 39.184 62.5638C38.7502 62.4278 38.3403 62.237 37.9702 61.9659C37.892 61.909 37.7896 61.8859 37.6271 61.8164ZM43.9872 61.6688C44.5144 59.2136 44.4522 56.8352 44.2043 54.4507C43.9576 53.7535 43.9519 52.987 43.6304 52.2639C43.4987 52.3539 43.4008 52.3938 43.3416 52.4659C42.8944 53.0099 42.4328 53.5443 42.0206 54.114C41.7253 54.5221 41.4653 54.9548 41.11 55.3169C40.7692 56.1691 40.1425 56.8444 39.6824 57.6224C39.5177 57.9011 39.293 58.1512 39.1693 58.445C38.934 59.0041 38.702 59.5602 38.3608 60.0657C38.2655 60.207 38.3183 60.3736 38.4732 60.4483C38.7673 60.5907 39.069 60.7167 39.3667 60.8519C39.5712 60.9449 39.7652 61.0853 39.9789 61.129C40.5691 61.2493 41.1359 61.4516 41.734 61.5594C42.4704 61.6923 43.1875 61.6296 43.9872 61.6688ZM56.9447 70.7303C56.8225 70.9785 56.7352 71.1273 56.6733 71.2863C56.5097 71.7077 56.4034 72.1586 56.1886 72.5511C55.8713 73.1319 55.7024 73.7608 55.4906 74.3749C55.3027 74.92 55.1873 75.489 54.9003 75.9991C54.8278 76.1282 54.7974 76.2823 54.7557 76.4269C54.6741 76.7112 54.7265 76.8452 54.988 76.9827C55.1209 77.052 55.2674 77.095 55.406 77.1538C55.8686 77.35 56.3682 77.4905 56.7838 77.7596C57.3129 78.1024 57.7957 78.1529 58.3317 77.8385C58.4163 77.7888 58.5246 77.7804 58.6159 77.7402C59.3246 77.429 59.8849 76.9963 60.2478 76.2596C60.5678 75.6101 60.4748 75.0141 60.214 74.4494C59.8348 73.6272 59.2453 72.928 58.6589 72.2384C58.5613 72.1237 58.4452 72.0243 58.3305 71.9255C58.0459 71.6799 57.7563 71.44 57.4709 71.1956C57.3205 71.0669 57.1744 70.9334 56.9447 70.7303ZM50.8894 77.6355C50.7193 77.3975 50.5113 77.3371 50.2839 77.2935C49.5491 77.1519 48.8101 77.0255 48.0851 76.844C47.3662 76.6638 46.6476 76.6676 45.9219 76.7275C45.8878 76.7302 45.8585 76.7929 45.8062 76.8501C45.9033 77.0327 46.0882 77.1139 46.2685 77.1747C46.7421 77.3345 47.2196 77.4841 47.7002 77.6211C48.5151 77.8534 49.307 78.1676 50.1522 78.294C50.5072 78.3472 50.5945 78.3336 50.7554 78.0238C50.8214 77.8966 50.8507 77.751 50.8894 77.6355ZM16.0589 78.6266C16.0589 78.488 16.0691 78.4539 16.0574 78.4418C15.2804 77.6568 14.3113 77.5289 13.2755 77.634C13.253 77.6363 13.2178 77.656 13.2136 77.6735C13.1928 77.7615 13.1541 77.8575 13.1738 77.938C13.1863 77.9892 13.2838 78.0356 13.3518 78.0553C14.0506 78.2576 14.7479 78.4656 15.4527 78.6436C15.6349 78.6895 15.8421 78.6357 16.0589 78.6266Z" fill="white" fill-opacity="0.2"/>
<path d="M71.5448 55.7798C71.2089 55.7513 70.873 55.7225 70.5367 55.694C70.4631 55.6345 70.3986 55.5453 70.3147 55.5202C70.0812 55.4508 69.8406 55.4071 69.6019 55.3555C69.1273 55.2529 68.6529 55.152 68.178 55.0502C68.0854 55.0343 67.9928 55.0188 67.9002 55.0029C67.6929 54.7755 67.4306 54.6916 67.1296 54.7102C66.7828 54.635 66.4358 54.5595 66.0888 54.4843C65.9917 54.4153 65.9036 54.3143 65.7958 54.2843C65.6041 54.2308 65.3935 54.2429 65.2029 54.1868C64.7335 54.0483 64.262 54.0513 63.7852 54.1158C63.6884 54.1138 63.5921 54.112 63.4953 54.11C63.1218 53.8694 62.7019 53.8128 62.2711 53.8007C62.1459 53.7237 62.0206 53.647 61.8809 53.5612C61.9075 53.0579 62.1098 52.6236 62.2483 52.1754C62.4108 51.6497 62.5922 51.1296 62.7657 50.6074C62.9266 50.5725 62.987 50.4578 62.9995 50.3079C63.009 50.1932 63.0151 50.0782 63.023 49.9636C63.2204 49.2975 63.348 48.6135 63.5621 47.95C63.7291 47.4326 63.8228 46.8918 63.9473 46.3611C64.021 46.0464 64.0911 45.7306 64.1629 45.4152C64.3319 45.1764 64.2169 44.91 64.2362 44.6565C65.1726 44.1101 66.1105 43.5667 67.0439 43.0152C67.2523 42.8918 67.5418 42.8607 67.6083 42.5589C67.9606 42.3532 68.3132 42.1478 68.6655 41.942C68.9307 41.9071 69.1702 41.8278 69.3062 41.57C69.7161 41.3314 70.1188 41.0664 70.6319 41.2311C70.7234 41.3465 70.8354 41.345 70.9569 41.2877C71.0518 41.3013 71.1467 41.315 71.2415 41.3286C71.3148 41.4672 71.4268 41.4923 71.5653 41.438C71.6598 41.4524 71.7544 41.4669 71.8484 41.4813C71.9658 41.6638 72.1297 41.6779 72.3162 41.6104C72.4125 41.6274 72.509 41.6445 72.6058 41.662C72.8627 41.8938 73.1816 41.936 73.5076 41.9554C73.8425 42.0302 74.1772 42.1049 74.512 42.1796C74.6073 42.3254 74.7246 42.415 74.9086 42.3357C75.1789 42.4028 75.4488 42.4697 75.7191 42.5365C75.8215 42.661 75.9434 42.7316 76.1104 42.675C76.411 42.7791 76.7112 42.8827 77.0119 42.9866C77.4449 43.2148 77.9065 43.3552 78.3882 43.4334C78.6626 43.5302 78.9371 43.627 79.2115 43.7234C79.7479 44.037 80.3111 44.2928 80.8984 44.4955C80.9196 44.5026 80.9477 44.4917 80.9723 44.489C81.0076 44.5095 81.043 44.5304 81.0782 44.5509C81.1446 44.6397 81.2111 44.7281 81.2775 44.817C81.2616 45.0045 81.2457 45.1924 81.2297 45.3799C81.1985 45.411 81.1621 45.4345 81.1211 45.4504C80.4538 45.3738 79.7835 45.3096 79.1971 44.9327L79.18 44.9111C79.1292 44.7194 78.9929 44.6747 78.816 44.6997C78.6698 44.6374 78.5237 44.5752 78.3776 44.5129C78.1609 44.3053 77.8913 44.2483 77.6041 44.2435C77.1762 44.1045 76.7484 43.9652 76.3202 43.8263C76.0914 43.5761 75.7935 43.509 75.4715 43.504C75.3778 43.484 75.284 43.4638 75.1899 43.4436C75.1057 43.3101 74.9907 43.3055 74.8604 43.3655C74.616 43.2922 74.3712 43.2189 74.1267 43.1453C74.0508 43.02 73.9453 42.9798 73.8068 43.0341C73.634 42.9909 73.4609 42.9475 73.2882 42.9043C72.6996 42.5706 72.0501 42.4667 71.3904 42.3998C70.8757 42.2347 70.4703 42.5019 70.0577 42.738C69.8572 42.6849 69.746 42.7745 69.697 42.9636C69.5623 43.0349 69.4276 43.1059 69.2924 43.1772C69.0681 43.1544 68.8583 43.157 68.8047 43.4448C68.711 43.5086 68.6168 43.572 68.523 43.6357C68.1481 43.6361 67.88 43.8927 67.5723 44.0472C67.3217 44.1728 67.3441 44.4298 67.6133 44.5528C68.1879 44.815 68.8002 44.9262 69.428 44.9597C69.576 44.9859 69.724 45.0124 69.8717 45.0387C69.9723 45.071 70.0725 45.1036 70.1731 45.1358C70.2573 45.1529 70.342 45.1703 70.4262 45.1875C70.55 45.3985 70.731 45.4531 70.9584 45.3833C71.5958 45.6144 72.233 45.8456 72.8704 46.0767C73.248 46.3918 73.661 46.6416 74.1435 46.7619C74.1822 46.7896 74.222 46.815 74.2634 46.8378L74.4277 47.0321C74.4843 46.9691 74.5408 46.9062 74.597 46.8431C74.6399 46.8223 74.6832 46.8025 74.7264 46.7836C74.8566 46.82 74.9652 46.7942 75.0396 46.6727C75.3375 46.6036 75.636 46.5342 75.9339 46.4651C76.3492 46.404 76.767 46.3573 77.1773 46.2738C77.311 46.2465 77.4252 46.1231 77.5482 46.0438C77.823 45.9887 78.0975 45.9333 78.3722 45.8783C78.4968 45.9177 78.605 45.9018 78.6843 45.7875C78.9048 45.7317 79.1254 45.6759 79.3458 45.6202C79.7144 45.6774 80.083 45.7348 80.4516 45.7921C80.54 45.9246 80.6232 46.0722 80.8072 45.9063C80.8876 45.92 80.9682 45.9337 81.0486 45.947C81.0718 46.0681 81.1507 46.216 81.1079 46.3052C80.9363 46.661 80.986 47.0341 80.967 47.4026C80.855 47.4976 80.8163 47.6118 80.8767 47.7514C80.8608 47.8376 80.8451 47.9234 80.8292 48.0095C80.7872 48.0957 80.7089 48.1815 80.7081 48.268C80.7032 48.9547 80.7127 49.6414 80.718 50.328C80.6911 50.7265 80.6538 51.1243 80.6402 51.5233C80.6315 51.7784 80.633 52.0274 80.4337 52.222C80.1961 52.2407 79.9582 52.2551 79.7209 52.2786C79.563 52.2942 79.4593 52.3819 79.4255 52.542C79.3208 52.593 79.2164 52.6438 79.1117 52.6943C78.72 52.73 78.4466 52.9747 78.1768 53.2249C77.64 53.6197 77.0035 53.8143 76.4129 54.1006C76.1062 54.0581 75.8754 54.2232 75.6428 54.383C75.3999 54.3978 75.125 54.3397 75.016 54.6585C74.572 54.8298 74.1279 55.0009 73.6838 55.1721C73.1076 55.1706 72.5887 55.3836 72.0717 55.604C71.8956 55.6629 71.7195 55.7222 71.5433 55.7809L71.5448 55.7798ZM70.3253 54.6961C70.4168 54.725 70.5139 54.7899 70.5986 54.7762C70.9968 54.7128 71.1968 54.4643 71.2071 54.0622C71.2731 53.8478 71.3266 53.6284 71.4086 53.4204C71.5293 53.1122 71.5187 52.7782 71.6029 52.4704C71.8587 51.5347 72.1044 50.593 72.4976 49.7006C72.7936 49.5715 72.8859 49.3313 72.8646 49.0291C72.9602 48.8552 73.056 48.6818 73.1516 48.5079C73.2764 48.4172 73.3831 48.317 73.3414 48.1401C73.3429 48.0517 73.3444 47.9629 73.3459 47.8745C73.2484 47.3749 72.9607 47.1062 72.4357 47.1248C72.3928 47.118 72.3511 47.1077 72.3101 47.094C72.2778 47.0283 72.2629 46.9353 72.2106 46.9012C71.7715 46.6173 71.3077 46.3926 70.7701 46.374C70.372 46.2465 69.9738 46.1193 69.5761 45.9918C69.5046 45.8768 69.4025 45.8414 69.2734 45.876C69.1718 45.8604 69.07 45.8449 68.9683 45.8289C68.8647 45.7989 68.7607 45.7693 68.6571 45.7393C68.5113 45.7139 68.3652 45.6888 68.2194 45.6634C68.1712 45.6084 68.1332 45.5241 68.0729 45.5029C67.7893 45.4031 67.5036 45.3036 67.2109 45.2376C67.0199 45.1946 66.8161 45.2095 66.5543 45.1946C66.4537 45.5393 66.2005 45.7253 65.8755 45.832C65.8186 45.8505 65.7867 45.945 65.743 46.0047C65.6755 46.1056 65.5764 46.1982 65.5457 46.3095C65.3612 46.9783 65.1377 47.6429 65.0336 48.3254C64.9277 49.0192 64.7497 49.6824 64.5182 50.339C64.4199 50.6176 64.3584 50.9095 64.2802 51.195C64.0365 51.3995 64.0407 51.699 63.9799 51.9738C63.9071 52.2677 63.8342 52.5618 63.7617 52.8556C63.7109 52.9198 63.6596 52.9839 63.6088 53.0477C63.6614 53.0871 63.7094 53.1475 63.7678 53.1604C63.8304 53.1744 63.9033 53.144 63.9716 53.1331C64.1925 53.1604 64.4164 53.1729 64.6335 53.2173C65.4561 53.3851 66.2763 53.5631 67.0978 53.7369C67.1942 53.885 67.3183 53.9427 67.4872 53.8585C67.5757 53.8706 67.6641 53.8827 67.7521 53.8949C67.8288 54.0703 67.9666 54.1477 68.1522 54.1909C68.588 54.293 69.0272 54.394 69.4488 54.5409C69.7384 54.6418 70.0258 54.6882 70.3257 54.695L70.3253 54.6961ZM76.0899 52.7015C76.4315 52.7068 76.7321 52.637 76.8703 52.2725C76.9018 52.2502 76.9356 52.2311 76.9708 52.2156C76.9951 52.2194 77.024 52.2334 77.043 52.2251C77.6625 51.9473 78.2812 51.6682 78.8957 51.3801C78.9066 51.3748 78.8669 51.2613 78.8509 51.1984C78.8669 51.1065 78.8831 51.0143 78.899 50.9224C79.1181 50.7972 79.1239 50.7808 79.0119 50.5899C79.0221 49.9917 79.0324 49.3932 79.043 48.7949C79.3037 48.6074 79.3034 48.6059 79.1891 48.3174C79.1964 47.9272 79.2035 47.5373 79.2111 47.1471C79.2748 46.9699 79.2195 46.8067 79.0309 46.8408C78.5404 46.9305 78.0576 47.0632 77.5751 47.1923C77.5193 47.2072 77.4856 47.3043 77.4416 47.3635C76.9488 47.488 76.4562 47.6129 75.9635 47.7374C75.6613 47.7036 75.3812 47.7431 75.1588 47.9766C75.0951 48.0502 74.9819 48.1196 74.9755 48.1978C74.9295 48.7459 74.6281 49.1874 74.3973 49.6588C74.0215 49.874 73.8948 50.224 73.8713 50.6302C73.4195 51.6356 73.221 52.709 73.0229 53.7825C73.01 53.8425 72.9683 53.9207 72.9918 53.9579C73.0206 54.0038 73.128 54.0551 73.1588 54.0357C73.2473 53.9806 73.314 53.8911 73.3893 53.8151C73.4753 53.7837 73.5612 53.7521 73.6474 53.7207C73.8291 53.7761 73.9403 53.6778 74.0352 53.5434C74.2477 53.4769 74.4672 53.428 74.671 53.3411C75.1482 53.1376 75.6176 52.916 76.0899 52.7015Z" fill="#325AFF"/>
<path d="M18.1476 33.1424C18.0998 32.8213 18.2969 32.5635 18.3712 32.2739C18.4468 32.1783 18.5325 32.0891 18.5955 31.9858C19.1053 31.1553 19.7434 30.4615 20.6305 30.0204C20.7807 29.9456 20.9713 29.9005 21.0168 29.694C21.1581 29.6234 21.2989 29.5531 21.4401 29.4825C21.8451 29.3842 22.2505 29.2855 22.6555 29.1872C22.7102 29.1607 22.7648 29.1345 22.8195 29.1079C23.1683 29.046 23.5171 28.9838 23.866 28.9219C23.9294 29.0305 23.9837 29.0138 24.0315 28.9098C24.2812 28.9064 24.531 28.9033 24.7807 28.8999C24.9284 29.0722 25.0832 29.0722 25.2449 28.92C25.5616 28.8767 25.8587 28.9436 26.1453 29.0745C26.2463 29.2108 26.3727 29.2028 26.5094 29.139C26.805 29.2518 27.1007 29.3641 27.3964 29.4769C27.3642 29.5786 27.41 29.6215 27.508 29.6253C28.1985 29.9593 28.6406 30.5366 29.0225 31.1724C29.0912 31.4093 29.1431 31.6556 29.3786 31.7976C29.525 32.3009 29.6526 32.8099 29.6703 33.3356C29.6875 33.8404 29.7129 34.3502 29.6647 34.8508C29.5975 35.5462 29.5459 36.2503 29.2802 36.9115C28.9925 37.0068 28.9606 37.2835 28.857 37.509C28.5688 37.8699 28.3188 38.2586 27.9058 38.5118C27.7312 38.6188 27.623 38.8349 27.4848 39.0011C27.297 39.0919 27.109 39.1829 26.9212 39.2736C26.8096 39.2087 26.7723 39.2539 26.7819 39.3678C26.5241 39.5241 26.2668 39.6806 26.009 39.837C25.7437 39.7849 25.5546 39.9133 25.3892 40.0981C25.2943 40.1193 25.1994 40.1403 25.1041 40.1615C24.9811 40.111 24.865 40.0958 24.7792 40.2275C24.0797 40.3584 23.3733 40.4074 22.6623 40.3971C22.3131 40.2176 21.9461 40.273 21.5801 40.3172C21.4378 40.2768 21.2978 40.226 21.1532 40.1982C20.5496 40.0837 20.0497 39.7902 19.6378 39.3401C19.4485 38.8895 19.1426 38.5252 18.783 38.2033C18.7337 38.1588 18.6521 38.1501 18.5858 38.1251C18.5515 37.8863 18.517 37.6472 18.4829 37.4084C18.5375 37.2315 18.4502 37.1142 18.3169 37.0167C18.2942 36.9408 18.2714 36.8652 18.2487 36.7894C18.2459 36.6326 18.2201 36.4906 18.0323 36.4527C18.0103 35.7038 17.9807 34.9549 17.9708 34.2056C17.9678 33.9589 18.0159 33.7118 18.041 33.4647C18.2547 33.355 18.2646 33.3272 18.1476 33.1424ZM21.754 39.3442L21.7408 39.3765C21.7874 39.4627 21.8394 39.5044 21.9085 39.3959C21.9996 39.4091 22.0907 39.422 22.1817 39.4354C22.2057 39.5484 22.2865 39.6247 22.3861 39.5774C22.4471 39.5481 22.4653 39.4289 22.5029 39.3503C22.5337 39.1822 22.6267 39.0869 22.8036 39.0656C23.0024 39.0418 23.199 39.0027 23.3968 38.97C23.5634 38.9916 23.6903 38.9389 23.7582 38.776C23.9479 38.6143 24.1381 38.4527 24.3279 38.2913C24.5127 38.2814 24.6202 38.1892 24.638 38.001C24.9417 37.7694 24.9326 37.4516 24.8798 37.1218C24.8373 36.9036 24.8046 36.6827 24.7481 36.4679C24.7116 36.3297 24.6042 36.3567 24.4395 36.5453C24.0459 36.8061 23.6519 37.0657 23.2598 37.3283C23.2188 37.3557 23.1884 37.3985 23.1532 37.4342C22.9622 37.3864 22.8499 37.4768 22.7827 37.6457C22.6396 37.7102 22.4961 37.7751 22.353 37.8396C22.1594 37.8309 21.9692 37.8294 21.8766 38.0495C21.7464 38.0993 21.6158 38.1486 21.4856 38.1984C21.27 38.2382 21.0518 38.2674 20.84 38.3221C20.7007 38.3577 20.7147 38.4325 20.8924 38.6402C21.0442 38.9214 21.2856 39.0987 21.5726 39.222C21.5892 39.3275 21.6436 39.3777 21.754 39.3442ZM19.7798 34.5058C19.8915 34.4125 20.0034 34.3191 20.115 34.2261C20.1993 34.1521 20.2835 34.0784 20.3678 34.0044C20.5484 34.0025 20.6502 33.9133 20.6669 33.7315L20.6745 33.7231C20.8411 33.6958 20.9581 33.6161 20.9766 33.4339C21.2332 33.1811 21.4899 32.9283 21.7464 32.6759C21.7947 32.6247 21.8432 32.573 21.8915 32.5218L21.8937 32.521C22.0075 32.5579 22.0858 32.5066 22.0941 32.3999C22.0983 32.3464 22.0424 32.269 21.9916 32.2356C21.9381 32.1999 21.8584 32.2037 21.7897 32.1904C21.4302 32.0299 21.1004 31.7877 20.6817 31.7923C20.4962 31.7227 20.3524 31.7695 20.2501 31.9327C19.8695 32.3058 19.7806 32.8004 19.6967 33.2927C19.6823 33.3785 19.7012 33.511 19.7586 33.5607C19.9905 33.7634 19.839 33.9763 19.8064 34.1877C19.7237 34.294 19.6929 34.4033 19.7874 34.5191C19.7528 34.5381 19.7187 34.5571 19.6842 34.5761C19.7161 34.5529 19.7479 34.529 19.7798 34.5058ZM26.6699 36.0711C26.8172 36.0003 26.9265 35.903 26.912 35.7205C27.2567 35.5087 27.7156 35.7266 28.0856 35.4058C28.0909 34.9283 28.0947 34.433 28.1024 33.9376C28.1103 33.4153 28.1232 32.8926 27.9066 32.3988C27.9483 32.2728 27.9589 32.1384 27.8014 32.1058C27.6534 32.0754 27.5968 32.1984 27.5733 32.3263C27.5691 32.3491 27.5793 32.3749 27.5828 32.3992C27.5167 32.6455 27.4507 32.8919 27.385 33.1378C27.3413 33.2434 27.2977 33.3485 27.2545 33.454C27.1615 33.6362 27.0685 33.8184 26.9755 34.0006C26.556 34.217 26.3867 34.655 26.1207 35.0008C25.9867 35.175 26.0322 35.4301 26.2546 35.5853C26.277 35.6765 26.2998 35.7679 26.3222 35.859C26.2724 36.0177 26.261 36.1679 26.4197 36.3384C26.52 36.231 26.5954 36.1505 26.6707 36.0701L26.6699 36.0711ZM23.7654 30.1305C24.2031 30.061 24.6406 29.9931 25.0772 29.9179C25.1075 29.9126 25.1281 29.8523 25.1531 29.8169C24.706 29.5679 24.463 29.5759 23.716 29.8633C23.5065 29.9191 23.2973 29.9745 23.0878 30.0303C22.8127 30.1426 22.537 30.2546 22.2618 30.367C22.0717 30.2698 21.954 30.3468 21.8793 30.526C21.7643 30.6084 21.6493 30.6903 21.5361 30.7712C21.5798 30.8422 21.6006 30.8877 21.6325 30.9242C21.6648 30.9614 21.7073 30.9891 21.7457 31.021C21.8268 31.1644 21.9487 31.1785 22.0907 31.1303C22.1731 31.1553 22.2558 31.1804 22.3381 31.2054C22.4665 31.3421 22.5929 31.4859 22.808 31.3633C23.3547 31.128 23.5536 30.6448 23.6944 30.1202L23.727 30.1468L23.7654 30.1305ZM24.5959 31.5899C24.4182 31.623 24.3328 31.7205 24.3738 31.9069C24.2615 32.1122 24.3181 32.2933 24.4725 32.4432C24.7708 32.7328 25.0746 33.0175 25.3857 33.2931C25.4241 33.3269 25.5224 33.2923 25.593 33.2897C25.8298 33.2726 25.8409 33.1265 25.7904 32.945C25.9479 32.4322 26.1055 31.9194 26.2709 31.3804C26.5716 31.3523 26.8885 31.3231 27.205 31.2939C27.4244 31.2233 27.4313 31.1663 27.2423 30.9754C27.0336 30.7814 26.8251 30.5879 26.6163 30.3939C26.5716 30.1935 26.4535 30.1145 26.2519 30.1756C26.1768 30.1331 26.102 30.0902 26.0269 30.0477C25.96 30.0246 25.8937 30.0014 25.8268 29.9783C25.6625 29.9589 25.4977 29.9392 25.2879 29.9145C25.2879 30.1783 25.3352 30.4076 25.2745 30.603C25.2126 30.8031 25.0445 30.9701 24.9231 31.1515C24.7352 31.1975 24.6475 31.3106 24.6854 31.5076C24.6627 31.5429 24.6323 31.5698 24.5959 31.5899ZM23.4496 33.3948C23.2708 33.1394 23.1641 33.0942 23.0021 33.2399C22.7208 33.4931 22.4528 33.7611 22.1806 34.0245C21.6181 34.5688 21.0625 35.1192 20.3507 35.4787C20.2259 35.5416 20.1382 35.6795 20.0338 35.7827C19.9244 35.8351 19.8152 35.8871 19.7157 35.9349C19.7278 36.1357 19.7381 36.3073 19.7487 36.4788C19.5802 36.7689 19.7836 36.9347 19.9594 37.1097C19.9962 37.1526 20.033 37.1951 20.0699 37.238C20.0581 37.345 20.0899 37.4175 20.213 37.4167C20.4013 37.3853 20.6047 37.3891 20.7739 37.3146C21.1524 37.1485 21.5137 36.9435 21.8819 36.7545C22.0782 36.8235 22.2258 36.6979 22.3579 36.6022C22.8805 36.2242 23.3987 35.8389 23.8998 35.4327C24.0884 35.2798 24.2368 35.0714 24.3795 34.8713C24.4346 34.7943 24.4099 34.6759 24.2777 34.6432C24.2296 34.5514 24.1814 34.4591 24.1331 34.3673C24.0637 34.2405 23.9943 34.1141 23.9248 33.9873C23.7661 33.7899 23.6083 33.5918 23.4496 33.3948Z" fill="#1DC9DC"/>
<path d="M67.6072 42.5584C67.5412 42.8602 67.2513 42.8917 67.0428 43.0147C66.1099 43.5666 65.1715 44.1098 64.2355 44.6564C64.1953 44.6613 64.1547 44.6666 64.114 44.6723C64.0912 44.4658 64.2169 44.3326 64.3687 44.2445C65.3229 43.6927 66.281 43.1468 67.244 42.6105C67.3438 42.5551 67.4854 42.5739 67.6072 42.5584Z" fill="#325AFF"/>
<path d="M21.0186 29.6941C20.9731 29.9006 20.7825 29.9457 20.6322 30.0205C19.7448 30.4616 19.1068 31.1554 18.5973 31.986C18.534 32.0892 18.4482 32.1784 18.373 32.2741C18.3928 32.1294 18.3715 31.9617 18.4386 31.8444C18.9648 30.9269 19.6814 30.2027 20.6554 29.7598C20.7639 29.7104 20.8968 29.7146 21.0186 29.6941Z" fill="#1DC9DC"/>
<path d="M79.1948 44.9319C79.7813 45.3089 80.4516 45.3729 81.1189 45.4497C81.0954 45.6151 81.0719 45.7803 81.0479 45.9458C80.9675 45.9325 80.8866 45.9188 80.8061 45.9052C80.7234 45.7556 80.5962 45.7439 80.4504 45.7909C80.0819 45.7336 79.7134 45.6762 79.3447 45.619C79.2214 45.406 79.1075 45.1903 79.1948 44.9319Z" fill="#325AFF"/>
<path d="M63.7852 54.1158C64.2622 54.0508 64.7333 54.0482 65.2028 54.1868C65.3934 54.2429 65.604 54.2308 65.7958 54.2843C65.9035 54.3147 65.9915 54.4152 66.0887 54.4843C66.0352 54.5303 65.9775 54.6195 65.9285 54.6149C65.7346 54.5967 65.5425 54.5542 65.352 54.5113C64.9446 54.419 64.5389 54.3276 64.1161 54.3518C63.9533 54.3609 63.8352 54.2789 63.7852 54.1158Z" fill="#325AFF"/>
<path d="M29.0252 31.173C28.643 30.5372 28.2012 29.9598 27.5107 29.6258C27.5031 29.5719 27.4959 29.518 27.4883 29.4641C28.3818 29.7055 28.854 30.3561 29.1516 31.176C29.1094 31.1779 29.0674 31.1768 29.0252 31.173Z" fill="#1DC9DC"/>
<path d="M80.7183 50.3265C80.7129 49.6398 80.7035 48.9533 80.7084 48.2666C80.7092 48.18 80.787 48.0942 80.8295 48.0081C80.8572 48.2271 80.902 48.4458 80.9089 48.6655C80.921 49.0655 80.9104 49.4664 80.9084 49.8668C80.9073 50.0452 80.896 50.2206 80.7183 50.3265Z" fill="#325AFF"/>
<path d="M68.1758 55.0503C68.6503 55.152 69.1251 55.253 69.5996 55.3554C69.838 55.4071 70.079 55.4511 70.3124 55.5202C70.3963 55.5452 70.4608 55.6344 70.5344 55.694C70.0205 55.8505 69.5616 55.5983 69.0834 55.4947C68.7937 55.4322 68.5076 55.3524 68.2202 55.2799C68.2054 55.2032 68.1906 55.1266 68.1758 55.0503Z" fill="#325AFF"/>
<path d="M27.4867 39.001C27.6249 38.8347 27.733 38.6187 27.9077 38.5117C28.3206 38.2585 28.5707 37.8698 28.8588 37.5093C28.9048 37.5146 28.9507 37.5187 28.9966 37.5214C28.7514 38.2084 28.228 38.64 27.6294 38.9995C27.5941 39.0207 27.5348 39.0013 27.4867 39.001Z" fill="#1DC9DC"/>
<path d="M80.9718 44.4881C80.9468 44.4908 80.919 44.5017 80.8978 44.4946C80.3106 44.2922 79.7473 44.0359 79.2109 43.7225C79.3066 43.7065 79.4095 43.6591 79.4972 43.6792C79.9936 43.7935 80.4397 44.0291 80.8697 44.2945C80.9232 44.3275 80.9384 44.422 80.9718 44.4881Z" fill="#325AFF"/>
<path d="M18.5859 38.1252C18.6524 38.1503 18.734 38.1591 18.7833 38.2035C19.1429 38.5253 19.4488 38.8897 19.6381 39.3403C19.5918 39.3289 19.5357 39.3304 19.5008 39.3038C19.2274 39.0966 18.8027 38.5443 18.5859 38.1252Z" fill="#1DC9DC"/>
<path d="M72.0703 55.6031C72.5869 55.3822 73.1058 55.1696 73.6823 55.1712C73.6743 55.1951 73.6725 55.2232 73.6581 55.2421C73.4367 55.5287 73.0928 55.5234 72.7861 55.6046C72.5485 55.6677 72.3083 55.7952 72.0703 55.6031Z" fill="#325AFF"/>
<path d="M78.3881 43.4324C77.9064 43.3545 77.4449 43.2142 77.0117 42.9856C77.0288 42.9681 77.0433 42.9465 77.063 42.9332C77.2235 42.8262 77.41 42.8368 77.5477 42.9294C77.8199 43.1124 78.24 43.0482 78.3881 43.4324Z" fill="#325AFF"/>
<path d="M62.27 53.8008C62.7012 53.8129 63.121 53.8698 63.4941 54.11C63.3809 54.1431 63.2621 54.2156 63.1554 54.2008C62.9125 54.1666 62.6708 54.1032 62.4388 54.022C62.3656 53.9965 62.3254 53.877 62.27 53.8008Z" fill="#325AFF"/>
<path d="M22.6568 29.1877C22.2518 29.286 21.8464 29.3847 21.4414 29.483C21.4699 29.4181 21.4836 29.3118 21.5294 29.2955C21.8665 29.1759 22.2097 29.0716 22.5532 28.9713C22.5793 28.9638 22.6253 29.0249 22.6621 29.0541C22.6637 29.0989 22.6621 29.1433 22.6568 29.1877Z" fill="#1DC9DC"/>
<path d="M79.4262 52.5402C79.4599 52.3801 79.5637 52.2924 79.7215 52.2768C79.9588 52.2533 80.1968 52.2389 80.4344 52.2202C80.4476 52.3626 80.4009 52.4701 80.2457 52.484C79.9732 52.5083 79.6996 52.522 79.4262 52.5402Z" fill="#325AFF"/>
<path d="M21.5801 40.3172C21.946 40.2732 22.3126 40.2178 22.6623 40.3973C22.428 40.6782 22.1176 40.5173 21.8397 40.5325C21.708 40.5396 21.6154 40.4512 21.5801 40.3172Z" fill="#1DC9DC"/>
<path d="M78.1777 53.223C78.448 52.9729 78.7209 52.728 79.1126 52.6924C78.8823 53.0776 78.6681 53.1991 78.1777 53.223Z" fill="#325AFF"/>
<path d="M73.5054 41.9545C73.1793 41.9351 72.8604 41.8929 72.6035 41.661C72.6361 41.6284 72.6741 41.5631 72.7003 41.5676C72.9311 41.6071 73.1641 41.6451 73.3854 41.7172C73.445 41.7366 73.4662 41.8721 73.5054 41.9545Z" fill="#325AFF"/>
<path d="M75.6434 54.3818C75.8762 54.222 76.1066 54.0568 76.4136 54.0993C76.2793 54.4733 75.9692 54.5165 75.6348 54.5142C75.6393 54.4702 75.6419 54.4259 75.6434 54.3818Z" fill="#325AFF"/>
<path d="M67.127 54.71C67.428 54.6914 67.6898 54.775 67.8975 55.0027C67.5654 55.1006 67.3308 55.0114 67.127 54.71Z" fill="#325AFF"/>
<path d="M64.1139 44.6719C64.1541 44.6663 64.1947 44.661 64.2354 44.656C64.2156 44.9092 64.3306 45.1756 64.1617 45.4144C63.9609 45.3025 63.915 45.1438 64.0114 44.9365C64.0512 44.8508 64.0796 44.7604 64.1139 44.6719Z" fill="#325AFF"/>
<path d="M63.0211 49.9634C63.0135 50.0781 63.0074 50.1931 62.9975 50.3076C62.985 50.4575 62.9246 50.5722 62.7637 50.6071C62.7709 50.4926 62.7762 50.3776 62.7857 50.2629C62.7982 50.1125 62.8632 50.001 63.0211 49.9634Z" fill="#325AFF"/>
<path d="M69.3028 41.5693C69.1669 41.8271 68.9273 41.9064 68.6621 41.9413C68.76 41.6183 68.9938 41.5291 69.3028 41.5693Z" fill="#325AFF"/>
<path d="M75.6427 54.3817C75.6412 54.4261 75.6385 54.4701 75.6336 54.5138C75.4555 54.6812 75.2418 54.6963 75.0156 54.6569C75.1249 54.3384 75.4002 54.3965 75.6427 54.3817Z" fill="#325AFF"/>
<path d="M28.9952 37.5215C28.9492 37.5188 28.9034 37.5146 28.8574 37.5093C28.961 37.2834 28.9929 37.0071 29.2806 36.9119C29.1853 37.1149 29.0905 37.3183 28.9952 37.5215Z" fill="#1DC9DC"/>
<path d="M29.0254 31.1724C29.0676 31.1762 29.1096 31.1773 29.1518 31.1754C29.3196 31.3492 29.3939 31.5572 29.3815 31.7975C29.1461 31.6556 29.0941 31.4092 29.0254 31.1724Z" fill="#1DC9DC"/>
<path d="M25.3906 40.0982C25.5561 39.9138 25.7455 39.785 26.0104 39.8371C25.8082 40.1844 25.6791 40.2387 25.3906 40.0982Z" fill="#1DC9DC"/>
<path d="M72.3133 41.6091C72.1269 41.6763 71.963 41.6622 71.8457 41.4801C72.1129 41.2998 72.1587 41.3127 72.3133 41.6091Z" fill="#325AFF"/>
<path d="M80.876 47.7497C80.8157 47.61 80.8543 47.4962 80.9663 47.4009C81.1186 47.5644 81.034 47.6666 80.876 47.7497Z" fill="#325AFF"/>
<path d="M70.9539 41.2873C70.8324 41.3446 70.7204 41.3461 70.6289 41.2307C70.7856 41.0379 70.8225 41.0444 70.9539 41.2873Z" fill="#325AFF"/>
<path d="M24.7793 40.2279C24.865 40.0962 24.9808 40.111 25.1042 40.1618C24.9896 40.4059 24.9429 40.4154 24.7793 40.2279Z" fill="#1DC9DC"/>
<path d="M71.564 41.437C71.4255 41.4916 71.3135 41.4665 71.2402 41.3276C71.425 41.1853 71.452 41.194 71.564 41.437Z" fill="#325AFF"/>
<path d="M18.0333 36.4529C18.2208 36.4908 18.2469 36.6327 18.2496 36.7896C18.0454 36.7618 18.023 36.618 18.0333 36.4529Z" fill="#1DC9DC"/>
<path d="M18.1469 33.1423C18.2638 33.3272 18.2543 33.3553 18.041 33.465C18.0762 33.3576 18.1116 33.2498 18.1469 33.1423Z" fill="#1DC9DC"/>
<path d="M76.1081 42.674C75.9411 42.7305 75.8192 42.6599 75.7168 42.5355C75.9729 42.4132 75.9756 42.414 76.1081 42.674Z" fill="#325AFF"/>
<path d="M18.3178 37.0171C18.4507 37.115 18.5379 37.2319 18.4836 37.4088C18.292 37.3359 18.2358 37.2057 18.3178 37.0171Z" fill="#1DC9DC"/>
<path d="M74.9083 42.3346C74.7243 42.4136 74.607 42.3244 74.5117 42.1786C74.7046 42.0762 74.834 42.1361 74.9083 42.3346Z" fill="#325AFF"/>
<path d="M25.2455 28.9203C25.0838 29.0725 24.929 29.0725 24.7812 28.9001C24.9361 28.907 25.0906 28.9134 25.2455 28.9203Z" fill="#1DC9DC"/>
<path d="M26.5086 29.1396C26.3719 29.2034 26.2456 29.2113 26.1445 29.0751C26.2816 29.009 26.4038 29.0238 26.5086 29.1396Z" fill="#1DC9DC"/>
<path d="M27.488 29.4638C27.4956 29.5177 27.5029 29.5716 27.5105 29.6255C27.4126 29.6217 27.3666 29.5788 27.3989 29.4771C27.4255 29.452 27.4551 29.4478 27.488 29.4638Z" fill="#1DC9DC"/>
<path d="M26.7826 39.368C26.7735 39.2542 26.8103 39.2086 26.9219 39.274C26.8753 39.3054 26.8289 39.3369 26.7826 39.368Z" fill="#1DC9DC"/>
<path d="M22.6582 29.1873C22.6635 29.1429 22.6655 29.0985 22.6635 29.0537C22.7163 29.0719 22.7694 29.0898 22.8222 29.108C22.7675 29.1346 22.7128 29.1607 22.6582 29.1873Z" fill="#1DC9DC"/>
<path d="M24.0347 28.9099C23.9867 29.0143 23.9326 29.0306 23.8691 28.9221C23.9242 28.9179 23.9796 28.9137 24.0347 28.9099Z" fill="#1DC9DC"/>
<path d="M9.61777 61.0588C9.75479 61.4574 9.96204 61.7974 10.3701 61.9733C10.3815 62.0734 10.3925 62.1736 10.4039 62.2742C10.4365 62.3854 10.435 62.5296 10.5067 62.6018C10.9068 63.0041 11.3247 63.3894 11.7362 63.7804C11.7551 63.9702 11.8967 63.9508 12.0273 63.9508C12.184 64.0833 12.3405 64.2157 12.4972 64.3482C12.5841 64.4268 12.6711 64.5058 12.758 64.5843C12.8381 64.8208 12.9786 64.9878 13.2465 65.0075C13.2852 65.0192 13.3239 65.0315 13.363 65.0436C13.6367 65.4547 14.0147 65.7299 14.4771 65.8946C14.8692 66.2832 15.2567 66.6772 15.6553 67.0595C15.9537 67.3457 15.9924 67.6642 15.8033 68.0153C15.5888 68.4131 15.3626 68.8044 15.1417 69.1984C14.9253 69.373 14.8141 69.6019 14.7936 69.877C14.4941 70.5064 14.1893 71.1331 13.9001 71.767C13.8511 71.8747 13.8694 72.0129 13.8565 72.137C13.8041 72.2419 13.7563 72.3496 13.6982 72.4514C13.5395 72.7284 13.5953 73.0939 13.3353 73.3289C13.1235 73.3414 12.9379 73.3855 12.9458 73.658C12.8878 73.7518 12.8301 73.8451 12.7721 73.9389C12.5732 73.951 12.3738 73.9632 12.1749 73.9753C12.027 73.9556 11.8789 73.9355 11.7313 73.9158C11.6535 73.7955 11.5445 73.7776 11.4174 73.8216C11.332 73.8011 11.2465 73.7802 11.1611 73.7597C10.8798 73.3977 10.4775 73.2815 10.0512 73.2147C10.0083 73.212 9.96811 73.1995 9.93092 73.1778C9.89827 73.1133 9.88272 73.0249 9.83033 72.9885C9.16342 72.5227 8.43728 72.1644 7.69484 71.8383C7.67586 71.83 7.64701 71.8448 7.62272 71.8489C7.57983 71.8451 7.53959 71.8334 7.50165 71.8129C7.4318 71.7177 7.38018 71.5962 7.28871 71.5324C6.98315 71.3199 6.66127 71.1308 6.34925 70.9274C6.11354 70.7737 5.92337 70.5831 5.89453 70.2813C5.98449 69.9458 6.07443 69.6098 6.16401 69.2744C6.32913 69.2367 6.39024 69.1187 6.3948 68.9642C6.40087 68.752 6.40088 68.5394 6.40316 68.3269C6.42479 68.1368 6.44604 67.9462 6.46768 67.756C6.70642 67.6596 6.71592 67.6384 6.60888 67.441C6.60774 67.168 6.55308 66.889 6.71363 66.6363C6.73945 66.5956 6.76298 66.5414 6.75956 66.4958C6.70035 65.6897 7.06969 64.9241 6.98201 64.1156C6.97669 64.0661 6.98125 64.0153 6.98125 63.9652C6.98163 63.6145 6.9577 63.2615 6.98959 62.9138C7.01882 62.5949 7.1084 62.2818 7.17103 61.9663C7.20444 61.9087 7.23822 61.8513 7.27161 61.7937C7.28907 61.5697 7.30654 61.3458 7.324 61.1218C7.3574 60.6876 7.54035 60.4814 7.98028 60.4663C8.3534 60.4534 8.72843 60.496 9.10269 60.5142C9.27464 60.6963 9.44619 60.8785 9.61814 61.0604L9.61777 61.0588ZM9.77529 67.8699C9.76846 67.7481 9.78251 67.6205 9.75137 67.5052C9.65838 67.1624 9.68267 66.779 9.41279 66.4955C9.36611 66.3084 9.31942 66.1216 9.27274 65.9344C9.32284 65.7913 9.27273 65.6874 9.14747 65.6126C9.13342 65.5203 9.11938 65.4277 9.10535 65.3354C9.19834 65.0192 9.00816 64.7464 8.96337 64.451C8.9311 64.2389 8.78423 64.1311 8.67111 64.1773C8.52497 64.237 8.53142 64.3721 8.52762 64.494C8.52534 64.5676 8.5504 64.6424 8.56293 64.7164C8.55761 64.9646 8.5523 65.2125 8.5466 65.4607C8.4445 65.5439 8.37162 65.6387 8.41603 65.7811C8.39173 66.1687 8.36783 66.5566 8.34354 66.9441C8.3071 67.0048 8.27066 67.0656 8.23384 67.1263C8.19246 67.4167 8.28507 67.7309 8.07822 67.9914C8.11769 68.4977 7.8311 68.9418 7.80415 69.4356C7.76809 69.4857 7.73167 69.5358 7.69523 69.5856C7.67852 69.7788 7.66182 69.972 7.64474 70.1651C7.4485 70.2958 7.46558 70.456 7.63108 70.5751C7.76203 70.6693 7.93396 70.7065 8.08807 70.7691C8.12148 70.7926 8.15602 70.8146 8.19132 70.8351C8.94933 71.5582 9.90548 71.9518 10.8233 72.4085C10.8771 72.4355 10.9615 72.4009 11.0211 72.3956C11.1448 72.1807 11.0715 72.0456 10.8943 71.9435C10.8043 71.6125 10.7144 71.2815 10.6244 70.9506C10.4228 69.901 10.1154 68.8811 9.77529 67.8699ZM11.9381 69.6778C11.9753 70.1147 12.0383 70.5425 12.3905 70.9957C12.4843 70.6264 12.7534 70.4514 12.7447 70.134C12.7751 70.0547 12.8055 69.975 12.8358 69.8957C13.0127 69.8224 13.0886 69.7051 13.0021 69.5161C13.1493 69.2022 13.2966 68.8879 13.4439 68.574C13.6898 68.254 13.9065 67.9177 14.0344 67.5465C13.8231 67.1089 13.82 67.1111 13.3858 66.8283C13.2958 66.7202 13.2059 66.612 13.1159 66.5035C13.0578 66.2407 12.9114 66.0832 12.6259 66.0893C12.5442 66.013 12.4626 65.9367 12.3811 65.8601C12.0056 65.3385 11.4082 65.0834 10.9443 64.6671C10.8977 64.6253 10.8055 64.6337 10.706 64.6132C10.6225 64.9267 10.6115 65.2083 10.8377 65.4596C10.8487 65.5515 10.8597 65.6433 10.8707 65.7348C10.8138 65.8859 10.862 65.9945 11.004 66.065C11.0214 66.1542 11.0389 66.243 11.0563 66.3322C10.9577 66.549 10.9812 66.7365 11.1874 66.8804C11.2537 67.168 11.3201 67.4558 11.3866 67.7431C11.3464 68.1664 11.4538 68.5907 11.7381 69.1278C11.8044 69.3111 11.8713 69.4944 11.9381 69.6778Z" fill="#8206FF"/>
<path d="M7.49957 71.8111C7.20236 71.6805 6.8987 71.5633 6.61061 71.4152C6.38779 71.3006 6.18434 71.1477 5.97254 71.0113C5.86853 70.8804 5.76454 70.7502 5.66016 70.62C5.6704 70.4606 5.7171 70.3263 5.89246 70.2795C5.9213 70.5809 6.11109 70.7714 6.34719 70.9256C6.65919 71.129 6.98108 71.3181 7.28663 71.5306C7.3781 71.5944 7.42972 71.7159 7.49957 71.8111Z" fill="#8206FF"/>
<path d="M14.4774 65.894C14.0149 65.7293 13.637 65.4544 13.3633 65.043C13.9057 65.103 14.259 65.4097 14.4774 65.894Z" fill="#8206FF"/>
<path d="M14.793 69.8765C14.8135 69.6013 14.9247 69.3728 15.141 69.1978C15.2032 69.5155 15.0955 69.7459 14.793 69.8765Z" fill="#8206FF"/>
<path d="M13.2463 65.0069C12.9783 64.9872 12.8379 64.8201 12.7578 64.5836C13.0694 64.5533 13.1969 64.7351 13.2463 65.0069Z" fill="#8206FF"/>
<path d="M67.2914 53.637C67.2785 53.1063 67.5719 52.7549 67.9754 52.4512C68.2692 52.4501 68.4864 52.6402 68.7304 52.7499C69.0488 52.8934 69.3589 53.0562 69.6683 53.2191C69.8221 53.2999 69.9784 53.3835 70.1124 53.4924C70.5102 53.8157 70.522 53.9087 70.2893 54.4489C70.0421 54.4045 69.7901 54.3783 69.5487 54.3131C69.0386 54.1753 68.5352 54.0128 68.0259 53.872C67.9428 53.8492 67.8429 53.8864 67.7507 53.8963C67.6622 53.8841 67.5738 53.872 67.4853 53.8599C67.4208 53.7858 67.3559 53.7109 67.2914 53.637Z" fill="white" fill-opacity="0.2"/>
<path d="M68.5203 43.6345C68.449 43.7283 68.3924 43.8414 68.3024 43.9117C68.153 44.0285 67.9821 44.1177 67.8238 44.2165C67.9099 44.4582 68.0921 44.4734 68.2543 44.5087C68.5682 44.577 68.8847 44.6328 69.1997 44.6973C69.3394 44.7258 69.4028 44.8261 69.4253 44.9586C68.7975 44.9247 68.1851 44.814 67.6105 44.5516C67.3417 44.4286 67.319 44.172 67.5695 44.046C67.8773 43.8915 68.1449 43.6353 68.5203 43.6345Z" fill="#325AFF"/>
<path d="M68.2186 45.6635C68.1579 45.7952 68.0664 45.837 67.9225 45.7876C67.5744 45.6688 67.2237 45.5595 66.8813 45.4486C66.657 45.6404 66.4748 45.8438 66.2494 45.9698C66.1157 46.0446 65.9138 45.9968 65.7422 46.0044C65.7859 45.9447 65.8177 45.8502 65.8748 45.8317C66.1996 45.725 66.4524 45.539 66.5534 45.1943C66.8153 45.2092 67.0191 45.1943 67.2101 45.2373C67.5027 45.3033 67.7886 45.4028 68.072 45.5026C68.1324 45.5239 68.1703 45.6084 68.2186 45.6635Z" fill="#325AFF"/>
<path d="M67.75 53.8957C67.8421 53.8863 67.942 53.8487 68.0251 53.8715C68.5346 54.0119 69.0378 54.1747 69.548 54.3125C69.7894 54.3778 70.0418 54.404 70.2886 54.4484C70.2985 54.4837 70.3086 54.5182 70.3193 54.5528C70.3227 54.6002 70.3238 54.6481 70.3235 54.6959C70.0232 54.6886 69.7363 54.6428 69.4467 54.5418C69.0249 54.3946 68.5858 54.294 68.15 54.1919C67.9644 54.1485 67.8266 54.0711 67.75 53.8957Z" fill="#325AFF"/>
<path d="M76.9707 52.2155C77.4946 51.6863 78.1321 51.3676 78.8507 51.1982C78.8666 51.2612 78.9065 51.3751 78.8956 51.38C78.281 51.6677 77.6623 51.9471 77.0428 52.225C77.0238 52.2333 76.995 52.2193 76.9707 52.2155Z" fill="#325AFF"/>
<path d="M79.2091 47.1471C78.946 47.0356 78.711 47.1723 78.4772 47.247C78.1356 47.3559 77.7996 47.4474 77.4395 47.3635C77.4835 47.3043 77.5173 47.2072 77.5731 47.1923C78.0555 47.0637 78.5384 46.9305 79.0287 46.8408C79.2174 46.8063 79.2728 46.9699 79.2091 47.1471Z" fill="#325AFF"/>
<path d="M73.2885 42.9031C73.1177 42.9221 72.9382 42.9843 72.7772 42.9521C72.3623 42.8693 71.9528 42.7532 71.5481 42.6287C71.4786 42.6074 71.4422 42.478 71.3906 42.3987C72.0499 42.4655 72.6997 42.5695 73.2885 42.9031Z" fill="#325AFF"/>
<path d="M72.3074 47.0936C71.751 47.0557 71.3156 46.7117 70.8268 46.503C70.7945 46.4893 70.7865 46.418 70.7676 46.3735C71.305 46.3922 71.7688 46.6169 72.208 46.9008C72.2608 46.9349 72.2752 47.0279 72.3074 47.0936Z" fill="#325AFF"/>
<path d="M75.9336 46.4639C75.9917 46.3873 76.0368 46.2602 76.1093 46.2423C76.5428 46.1359 76.982 46.0525 77.4208 45.9693C77.4572 45.9625 77.505 46.0161 77.5479 46.0419C77.425 46.122 77.3111 46.2453 77.1771 46.2723C76.7667 46.3558 76.3484 46.4028 75.9336 46.4639Z" fill="#325AFF"/>
<path d="M72.8691 46.0754C73.4169 46.0747 73.875 46.2405 74.1422 46.7606C73.6598 46.6403 73.2468 46.3909 72.8691 46.0754Z" fill="#325AFF"/>
<path d="M73.3438 47.8736C72.9923 47.682 72.6833 47.439 72.4336 47.1239C72.9585 47.1054 73.2462 47.3741 73.3438 47.8736Z" fill="#325AFF"/>
<path d="M70.3244 54.6961C70.3252 54.6482 70.3237 54.6004 70.3203 54.553C70.5954 54.5514 70.8361 54.4965 70.9796 54.219C71.0167 54.1469 71.1287 54.1134 71.2062 54.0623C71.1959 54.4642 70.9955 54.7132 70.5977 54.7762C70.513 54.7899 70.4159 54.725 70.3244 54.6961Z" fill="#325AFF"/>
<path d="M74.3952 49.6592C74.3049 50.0288 74.1944 50.3875 73.8691 50.6301C73.8927 50.2243 74.0195 49.8743 74.3952 49.6592Z" fill="#325AFF"/>
<path d="M76.0879 52.7011C76.2343 52.3516 76.532 52.2768 76.8683 52.2722C76.7297 52.6366 76.4294 52.7064 76.0879 52.7011Z" fill="#325AFF"/>
<path d="M76.3175 43.8249C75.9455 43.9521 75.6569 43.8587 75.4688 43.5027C75.7906 43.5076 76.089 43.5748 76.3175 43.8249Z" fill="#325AFF"/>
<path d="M78.3752 44.5109C78.062 44.635 77.8176 44.5497 77.6016 44.2415C77.8889 44.2464 78.1585 44.3033 78.3752 44.5109Z" fill="#325AFF"/>
<path d="M64.2788 51.1951C64.3706 51.5288 64.2689 51.7877 63.9785 51.974C64.0392 51.6992 64.0351 51.3993 64.2788 51.1951Z" fill="#325AFF"/>
<path d="M75.9629 47.737C75.925 47.8975 75.8179 47.984 75.6586 47.989C75.4923 47.9943 75.3252 47.981 75.1582 47.9761C75.3806 47.7426 75.6608 47.7028 75.9629 47.737Z" fill="#325AFF"/>
<path d="M72.4961 49.6998C72.5131 49.4185 72.6122 49.1817 72.8631 49.0283C72.8844 49.3305 72.7921 49.5712 72.4961 49.6998Z" fill="#325AFF"/>
<path d="M73.021 53.7821C73.1429 53.7927 73.265 53.8037 73.3869 53.8144C73.3117 53.8902 73.245 53.9799 73.1565 54.0348C73.1257 54.0542 73.0183 54.003 72.9895 53.9571C72.966 53.9198 73.0081 53.842 73.021 53.7821Z" fill="#325AFF"/>
<path d="M69.2904 43.1758C69.2111 43.4172 69.0171 43.4483 68.8027 43.4434C68.8562 43.1558 69.0665 43.153 69.2904 43.1758Z" fill="#325AFF"/>
<path d="M70.4238 45.1861C70.7714 45.1177 70.7863 45.123 70.9559 45.382C70.729 45.4518 70.5475 45.3971 70.4238 45.1861Z" fill="#325AFF"/>
<path d="M79.0433 48.7944C78.9791 48.6008 78.9965 48.4322 79.1894 48.3169C79.3039 48.6053 79.3044 48.6068 79.0433 48.7944Z" fill="#325AFF"/>
<path d="M63.76 52.856C63.8298 52.9485 63.9001 53.0412 63.9703 53.1338C63.9019 53.1448 63.8294 53.1752 63.7664 53.1611C63.708 53.1479 63.6598 53.0878 63.6074 53.0484C63.6583 52.9842 63.7092 52.9198 63.76 52.856Z" fill="#325AFF"/>
<path d="M75.1889 43.4419C75.015 43.5999 74.9889 43.5938 74.8594 43.3638C74.9897 43.3038 75.1047 43.3084 75.1889 43.4419Z" fill="#325AFF"/>
<path d="M78.897 50.9222C78.8371 50.7783 78.8949 50.6743 79.0099 50.5896C79.1219 50.7806 79.1161 50.7968 78.897 50.9222Z" fill="#325AFF"/>
<path d="M79.1784 44.9097C78.9765 44.9777 78.8612 44.8968 78.8145 44.6984C78.9914 44.6737 79.1276 44.7181 79.1784 44.9097Z" fill="#325AFF"/>
<path d="M69.8696 45.0371C69.9341 44.9919 69.9987 44.9468 70.0627 44.9016C70.0988 44.979 70.1349 45.0568 70.1706 45.1343C70.07 45.102 69.9702 45.0694 69.8696 45.0371Z" fill="#325AFF"/>
<path d="M67.2912 53.6372C67.3557 53.7116 67.4207 53.7856 67.4852 53.8596C67.3166 53.9435 67.1922 53.8858 67.0957 53.7381C67.1611 53.7047 67.226 53.6709 67.2912 53.6372Z" fill="#325AFF"/>
<path d="M74.1247 43.1436C73.9375 43.294 73.9083 43.2837 73.8047 43.0324C73.9432 42.9781 74.0487 43.0183 74.1247 43.1436Z" fill="#325AFF"/>
<path d="M78.3711 45.8765C78.4652 45.6051 78.5084 45.5926 78.6831 45.7858C78.6034 45.9004 78.4952 45.916 78.3711 45.8765Z" fill="#325AFF"/>
<path d="M73.6465 53.7207C73.7114 53.5214 73.8363 53.4527 74.0344 53.5431C73.9395 53.6778 73.8283 53.7762 73.6465 53.7207Z" fill="#325AFF"/>
<path d="M68.9656 45.8291C68.9136 45.8736 68.8617 45.9179 68.81 45.9624C68.758 45.888 68.7063 45.8135 68.6543 45.7395C68.7579 45.7695 68.862 45.7991 68.9656 45.8291Z" fill="#325AFF"/>
<path d="M70.0558 42.7373C69.9951 42.9077 69.8839 42.9966 69.6953 42.9628C69.7443 42.7737 69.8555 42.6842 70.0558 42.7373Z" fill="#325AFF"/>
<path d="M80.4512 45.7904C80.5969 45.7434 80.724 45.7551 80.8067 45.9047C80.6227 46.0705 80.5392 45.9229 80.4512 45.7904Z" fill="#325AFF"/>
<path d="M69.574 45.9917C69.3683 46.1841 69.3607 46.1811 69.2715 45.876C69.4001 45.8414 69.5023 45.8767 69.574 45.9917Z" fill="#325AFF"/>
<path d="M74.2637 46.8367C74.3749 46.8386 74.4861 46.8401 74.5973 46.842C74.5407 46.9051 74.4841 46.968 74.428 47.031L74.2637 46.8367Z" fill="#325AFF"/>
<path d="M73.1503 48.5069C73.0679 48.3096 73.1688 48.2064 73.3401 48.1392C73.3818 48.3156 73.2752 48.4162 73.1503 48.5069Z" fill="#325AFF"/>
<path d="M74.7266 46.782C74.8206 46.5167 74.8557 46.5045 75.0397 46.6711C74.9653 46.7926 74.8567 46.818 74.7266 46.782Z" fill="#325AFF"/>
<path d="M23.4489 33.3949C23.272 33.3998 23.115 33.4249 22.9741 33.5668C22.5516 33.9931 22.1045 34.3951 21.6817 34.8209C21.2682 35.2377 20.7566 35.5 20.2511 35.7733C20.1933 35.8044 20.1065 35.7809 20.0332 35.7824C20.1379 35.6792 20.2252 35.5413 20.3501 35.4783C21.0618 35.1189 21.6175 34.5685 22.1801 34.0242C22.4522 33.7608 22.7202 33.4932 23.0015 33.2396C23.1631 33.0939 23.2702 33.1394 23.4489 33.3949Z" fill="#1DC9DC"/>
<path d="M21.8809 36.7539C22.1143 36.3778 22.5262 36.2164 22.8526 35.9527C23.356 35.5457 23.926 35.2144 24.2768 34.6423C24.4089 34.6754 24.434 34.7934 24.3785 34.8704C24.2358 35.0704 24.0874 35.2789 23.8987 35.4318C23.398 35.838 22.8796 36.2232 22.3569 36.6013C22.2245 36.697 22.0772 36.8231 21.8809 36.7539Z" fill="#1DC9DC"/>
<path d="M26.9772 34.0012C26.9445 34.114 26.9354 34.2422 26.8743 34.3364C26.743 34.5398 26.6041 34.7452 26.4329 34.9141C26.231 35.1134 26.2435 35.3437 26.256 35.5859C26.0336 35.4307 25.988 35.1756 26.1221 35.0014C26.3885 34.6552 26.5577 34.2172 26.9772 34.0012Z" fill="#1DC9DC"/>
<path d="M23.7168 29.8633C24.4634 29.5759 24.7068 29.5683 25.1539 29.8173C25.1288 29.8523 25.1079 29.913 25.078 29.9179C24.6415 29.9931 24.2038 30.0606 23.7661 30.1301C23.7494 30.0409 23.7332 29.9521 23.7168 29.8633Z" fill="#1DC9DC"/>
<path d="M24.8798 37.1224C24.8111 37.0362 24.7189 36.9592 24.6798 36.8613C24.627 36.7288 24.5845 36.6028 24.4395 36.5459C24.6042 36.3576 24.7116 36.3303 24.7481 36.4685C24.8046 36.6829 24.8369 36.9042 24.8798 37.1224Z" fill="#1DC9DC"/>
<path d="M21.4876 38.1984C21.403 38.2698 21.3213 38.3456 21.2326 38.4113C21.1232 38.4922 21.0074 38.5643 20.8944 38.6398C20.7167 38.4326 20.7027 38.3578 20.842 38.3218C21.0538 38.2672 21.272 38.2383 21.4876 38.1984Z" fill="#1DC9DC"/>
<path d="M19.7486 36.479C19.8921 36.665 19.993 36.8647 19.9593 37.1099C19.7835 36.9349 19.5801 36.769 19.7486 36.479Z" fill="#1DC9DC"/>
<path d="M27.9065 32.3995C27.7987 32.3995 27.6906 32.3995 27.5827 32.3999C27.5793 32.3756 27.569 32.3502 27.5733 32.327C27.5964 32.1991 27.6534 32.0761 27.8013 32.1065C27.9593 32.1387 27.9482 32.2731 27.9065 32.3995Z" fill="#1DC9DC"/>
<path d="M26.322 35.8601C26.4274 35.8771 26.533 35.8943 26.6385 35.9114C26.6491 35.9645 26.6597 36.018 26.6703 36.0715C26.5952 36.152 26.5197 36.2324 26.4195 36.3399C26.2608 36.1695 26.2722 36.0188 26.322 35.8601Z" fill="#1DC9DC"/>
<path d="M21.8946 32.5208C21.8601 32.4107 21.8255 32.3003 21.791 32.1902C21.8593 32.2035 21.939 32.2001 21.993 32.2354C22.0434 32.2688 22.0996 32.3462 22.0954 32.3997C22.087 32.5064 22.0086 32.5576 21.8946 32.5208Z" fill="#1DC9DC"/>
<path d="M22.3553 37.8398C22.2562 38.0448 22.0911 38.1002 21.8789 38.0497C21.9716 37.8295 22.1617 37.8307 22.3553 37.8398Z" fill="#1DC9DC"/>
<path d="M22.3398 31.2058C22.5369 31.1383 22.699 31.1755 22.8097 31.3637C22.5941 31.486 22.4682 31.3425 22.3398 31.2058Z" fill="#1DC9DC"/>
<path d="M20.6836 31.7922C20.5739 31.9433 20.4106 31.9315 20.252 31.9326C20.354 31.7694 20.4978 31.7226 20.6836 31.7922Z" fill="#1DC9DC"/>
<path d="M22.1836 39.435C22.2906 39.4065 22.3977 39.3781 22.5047 39.3496C22.4672 39.4286 22.4489 39.5478 22.3878 39.5766C22.288 39.6241 22.2075 39.5481 22.1836 39.435Z" fill="#1DC9DC"/>
<path d="M24.5974 31.5898C24.5515 31.7151 24.5617 31.8798 24.3753 31.9068C24.3344 31.7208 24.4198 31.6229 24.5974 31.5898Z" fill="#1DC9DC"/>
<path d="M23.7157 29.8634C23.7321 29.9522 23.7483 30.0414 23.765 30.1303L23.7271 30.1473L23.6945 30.1208C23.4922 30.0904 23.2903 30.0604 23.0879 30.0301C23.2971 29.9742 23.5062 29.9192 23.7157 29.8634Z" fill="#1DC9DC"/>
<path d="M26.6705 36.0711C26.6599 36.0177 26.6493 35.9645 26.6387 35.911C26.7302 35.8476 26.8212 35.7839 26.9127 35.7205C26.9271 35.903 26.8178 36.0002 26.6705 36.0711Z" fill="#1DC9DC"/>
<path d="M26.6164 30.3937C26.4352 30.4203 26.3187 30.3391 26.252 30.1755C26.4539 30.1144 26.5716 30.1933 26.6164 30.3937Z" fill="#1DC9DC"/>
<path d="M22.2615 30.367C22.1689 30.5036 22.0535 30.586 21.8789 30.526C21.954 30.3469 22.0713 30.2694 22.2615 30.367Z" fill="#1DC9DC"/>
<path d="M24.1338 34.3665C23.9265 34.3153 23.8673 34.1832 23.9254 33.9866C23.9949 34.1133 24.0643 34.2397 24.1338 34.3665Z" fill="#1DC9DC"/>
<path d="M24.9221 31.1506C24.941 31.3347 24.8568 31.4501 24.6845 31.5067C24.6465 31.31 24.7342 31.1969 24.9221 31.1506Z" fill="#1DC9DC"/>
<path d="M20.3691 34.0048C20.3839 33.8208 20.4883 33.735 20.6682 33.7319C20.6515 33.9138 20.5498 34.0026 20.3691 34.0048Z" fill="#1DC9DC"/>
<path d="M20.6758 33.7231C20.6811 33.5268 20.7855 33.4346 20.9779 33.4338C20.9593 33.616 20.8424 33.6954 20.6758 33.7231Z" fill="#1DC9DC"/>
<path d="M24.3262 38.2909C24.3413 38.1 24.4412 37.999 24.6363 38.0005C24.6181 38.1884 24.5107 38.281 24.3262 38.2909Z" fill="#1DC9DC"/>
<path d="M27.3864 33.1387C27.5021 33.3357 27.4907 33.3634 27.2559 33.4549C27.2995 33.3493 27.3431 33.2442 27.3864 33.1387Z" fill="#1DC9DC"/>
<path d="M25.5923 33.2895C25.5745 33.1266 25.6539 33.0196 25.7897 32.9448C25.8402 33.1263 25.8292 33.2724 25.5923 33.2895Z" fill="#1DC9DC"/>
<path d="M23.1537 37.4344C23.0895 37.6094 22.9768 37.6981 22.7832 37.6458C22.8504 37.4769 22.9627 37.3865 23.1537 37.4344Z" fill="#1DC9DC"/>
<path d="M23.3984 38.9697C23.4543 38.7845 23.5799 38.7302 23.7598 38.7757C23.6919 38.9382 23.565 38.991 23.3984 38.9697Z" fill="#1DC9DC"/>
<path d="M19.8077 34.1876C19.9105 34.2005 20.0131 34.2131 20.1159 34.226C20.0043 34.3193 19.8928 34.4127 19.7808 34.5057L19.789 34.5194C19.6942 34.4032 19.7253 34.2943 19.8077 34.1876Z" fill="#1DC9DC"/>
<path d="M27.207 31.2936C27.2192 31.1873 27.2316 31.0814 27.2442 30.9751C27.4332 31.166 27.4267 31.223 27.207 31.2936Z" fill="#1DC9DC"/>
<path d="M21.748 31.021C21.8855 30.9872 22.0081 31.0001 22.0932 31.1303C21.9512 31.1785 21.8289 31.1645 21.748 31.021Z" fill="#1DC9DC"/>
<path d="M21.746 32.6755C21.7342 32.5673 21.7789 32.5127 21.8909 32.5214C21.8428 32.5727 21.7942 32.6243 21.746 32.6755Z" fill="#1DC9DC"/>
<path d="M19.7808 34.5063C19.749 34.5295 19.7174 34.553 19.6855 34.5762C19.7201 34.5572 19.7543 34.5382 19.7892 34.5196L19.7808 34.5063Z" fill="#1DC9DC"/>
<path d="M21.7422 39.3767C21.798 39.3832 21.8542 39.3896 21.91 39.3961C21.8409 39.505 21.7889 39.4629 21.7422 39.3767Z" fill="#1DC9DC"/>
<path d="M21.5723 39.2219C21.6326 39.2626 21.6933 39.3032 21.7537 39.3442C21.6433 39.3776 21.5894 39.3275 21.5723 39.2219Z" fill="#1DC9DC"/>
<path d="M20.0706 37.2373C20.1184 37.2969 20.1663 37.3564 20.2137 37.416C20.0908 37.4168 20.0589 37.3443 20.0706 37.2373Z" fill="#1DC9DC"/>
<path d="M6.40357 68.325C6.40091 68.5375 6.40129 68.7501 6.39484 68.9622C6.39029 69.1167 6.32918 69.2347 6.16406 69.2723C6.18266 69.0522 6.20087 68.832 6.22023 68.6123C6.23124 68.485 6.26123 68.369 6.40357 68.325Z" fill="#8206FF"/>
<path d="M9.61703 61.0587C9.44546 60.8765 9.27352 60.6943 9.10156 60.5124C9.3536 60.4742 9.51872 60.6142 9.63638 60.8051C9.67244 60.8636 9.62577 60.9726 9.61703 61.0587Z" fill="#8206FF"/>
<path d="M6.60993 67.4395C6.71697 67.6368 6.7075 67.6581 6.46875 67.7544C6.51581 67.6493 6.56287 67.5446 6.60993 67.4395Z" fill="#8206FF"/>
<path d="M12.0275 63.95C11.8969 63.95 11.7556 63.9692 11.7363 63.7796C11.9431 63.6398 11.9765 63.6591 12.0275 63.95Z" fill="white" fill-opacity="0.2"/>
<path d="M10.4029 62.2737C10.3915 62.1735 10.3805 62.0732 10.3691 61.9727C10.4473 62.0171 10.5764 62.0482 10.5923 62.1093C10.6238 62.2289 10.5035 62.2585 10.4029 62.2737Z" fill="white" fill-opacity="0.2"/>
<path d="M8.19177 70.8345C8.57705 70.7917 8.8435 71.0524 9.14376 71.2164C9.6262 71.4798 10.0984 71.7623 10.5744 72.037C10.7148 72.1182 10.8067 72.0386 10.8943 71.9425C11.0717 72.0446 11.1448 72.1798 11.0212 72.3946C10.9615 72.3995 10.8773 72.4341 10.8234 72.4075C9.90556 71.9513 8.95016 71.5576 8.19177 70.8345Z" fill="#8206FF"/>
<path d="M13.4419 68.5738C13.2093 68.1426 13.2009 67.6556 13.1049 67.1914C13.0647 66.9978 13.1561 66.846 13.3835 66.8281C13.8181 67.1109 13.8207 67.1087 14.0322 67.5462C13.9042 67.9175 13.6882 68.2538 13.4419 68.5738Z" fill="white" fill-opacity="0.2"/>
<path d="M10.6236 70.95C10.5552 70.8832 10.4516 70.8289 10.4247 70.7485C10.1066 69.8048 9.81204 68.854 9.64844 67.8687L9.71107 67.8717L9.7737 67.8694C10.1138 68.8805 10.422 69.9008 10.6236 70.95Z" fill="#8206FF"/>
<path d="M12.3802 65.8599C12.2212 65.9051 12.0978 65.8352 11.9756 65.7445C11.7034 65.5418 11.4271 65.3451 11.1204 65.1224C11.0137 65.2492 10.9257 65.3543 10.8373 65.4595C10.6106 65.2081 10.6216 64.9265 10.7055 64.613C10.805 64.6338 10.8972 64.6252 10.9439 64.6669C11.4074 65.0833 12.0049 65.3387 12.3802 65.8599Z" fill="#8206FF"/>
<path d="M9.92966 73.1765C9.16139 72.866 8.40112 72.5384 7.73041 72.0408C7.67613 72.0006 7.65678 71.9129 7.62109 71.8476C7.64538 71.8434 7.67461 71.8286 7.69321 71.837C8.43603 72.163 9.16177 72.5217 9.82868 72.987C9.88069 73.0235 9.89701 73.1119 9.92966 73.1765Z" fill="#8206FF"/>
<path d="M11.9379 69.6777C12.0062 69.7422 12.0935 69.7957 12.1399 69.8731C12.3429 70.2125 12.3388 70.2151 12.7442 70.1335C12.7533 70.4509 12.4837 70.6258 12.3899 70.9951C12.0378 70.5419 11.9751 70.1146 11.9379 69.6777Z" fill="#8206FF"/>
<path d="M9.1052 65.3346C8.882 65.2534 8.88391 65.0451 8.83988 64.8637C8.8023 64.7088 8.68766 64.7038 8.56278 64.7159C8.55025 64.642 8.52521 64.5672 8.52749 64.4935C8.5309 64.3713 8.52444 64.2366 8.67096 64.177C8.78408 64.131 8.93097 64.2389 8.96324 64.4507C9.00803 64.7459 9.19819 65.0184 9.1052 65.3346Z" fill="#8206FF"/>
<path d="M11.387 67.7427C11.6334 68.1716 11.7393 68.6357 11.7386 69.1273C11.4546 68.5906 11.3468 68.1658 11.387 67.7427Z" fill="#8206FF"/>
<path d="M9.77499 67.8698L9.71236 67.8721L9.64974 67.869C9.59546 67.6534 9.5279 67.4401 9.4907 67.2215C9.4497 66.9819 9.43717 66.7375 9.41211 66.4954C9.68199 66.7785 9.65808 67.1622 9.75069 67.5051C9.78182 67.6204 9.76815 67.748 9.77499 67.8698Z" fill="#8206FF"/>
<path d="M11.1588 73.759C10.5965 73.7145 10.3851 73.6106 10.0488 73.2139C10.4755 73.2807 10.8775 73.3968 11.1588 73.759Z" fill="#8206FF"/>
<path d="M7.64639 70.165C7.79404 70.3662 7.94169 70.5673 8.08972 70.7685C7.93599 70.7059 7.76406 70.6687 7.63273 70.5745C7.46723 70.4554 7.45015 70.2956 7.64639 70.165Z" fill="#8206FF"/>
<path d="M12.7728 73.9377C12.6164 74.2995 12.4456 74.3098 12.1758 73.9742C12.3747 73.962 12.5739 73.9499 12.7728 73.9377Z" fill="#8206FF"/>
<path d="M13.117 66.5031C12.8395 66.5001 12.6934 66.3418 12.627 66.0891C12.9124 66.0826 13.0589 66.2405 13.117 66.5031Z" fill="#8206FF"/>
<path d="M11.0562 66.3315C11.2502 66.4781 11.2874 66.6626 11.1876 66.8797C10.9811 66.7357 10.9576 66.5483 11.0562 66.3315Z" fill="#8206FF"/>
<path d="M13.335 73.3276C13.3559 73.6153 13.1194 73.5991 12.9456 73.6567C12.9376 73.3842 13.1232 73.3405 13.335 73.3276Z" fill="#8206FF"/>
<path d="M8.54624 65.4604C8.65176 65.6533 8.64531 65.6688 8.41567 65.7808C8.37126 65.6381 8.44375 65.5432 8.54624 65.4604Z" fill="#8206FF"/>
<path d="M9.27181 65.9337C9.03951 65.8149 9.03192 65.7952 9.14656 65.6118C9.27182 65.6866 9.32191 65.7907 9.27181 65.9337Z" fill="#8206FF"/>
<path d="M10.871 65.7341C11.0122 65.8051 11.1641 65.8716 11.0042 66.0644C10.8623 65.9938 10.8141 65.8852 10.871 65.7341Z" fill="#8206FF"/>
<path d="M12.8356 69.8948C12.7977 69.7274 12.8781 69.612 13.0019 69.5156C13.0884 69.7042 13.0125 69.8219 12.8356 69.8948Z" fill="#8206FF"/>
<path d="M11.7319 73.9146C11.5557 74.0741 11.5201 74.0631 11.418 73.8205C11.5451 73.7765 11.6541 73.7943 11.7319 73.9146Z" fill="#8206FF"/>
</g>
<g clip-path="url(#clip1_342_1741)">
<path d="M64.8862 38.4927C65.059 39.1737 65.3944 39.8141 65.923 40.3427C66.5422 40.9632 67.356 41.352 68.2278 41.4439C69.0996 41.5358 69.9765 41.3253 70.7115 40.8476C71.4465 40.3699 71.995 39.654 72.265 38.82C72.5351 37.986 72.5102 37.0845 72.1946 36.2667C72.1438 35.606 72.093 34.559 72.2556 33.3392C72.5707 30.8082 73.5668 28.694 75.183 27.0778C77.531 24.7298 80.6618 23.9979 82.8777 23.8149C86.0592 23.5405 88.7935 24.2419 90.1556 24.9127C90.957 25.3072 91.8724 25.4045 92.7388 25.1874C93.6053 24.9703 94.3667 24.4529 94.8875 23.7272C95.4083 23.0015 95.6547 22.1145 95.583 21.2242C95.5113 20.3338 95.1261 19.4978 94.4959 18.8648C94.2113 18.5801 93.886 18.3362 93.4997 18.1532C90.4605 16.6387 86.232 15.9475 82.2068 16.2931C78.7406 16.5879 73.7905 17.7771 69.8262 21.7414C62.9651 28.6432 64.8049 38.1065 64.8862 38.4927Z" fill="#FFE6C7"/>
<path d="M64.8862 38.4927C65.059 39.1737 65.3944 39.8141 65.923 40.3427C66.5422 40.9632 67.356 41.352 68.2278 41.4439C69.0996 41.5358 69.9765 41.3253 70.7115 40.8476C71.4465 40.3699 71.995 39.654 72.265 38.82C72.5351 37.986 72.5102 37.0845 72.1946 36.2667C72.1438 35.606 72.093 34.559 72.2556 33.3392C72.5707 30.8082 73.5668 28.694 75.183 27.0778C77.531 24.7298 80.6618 23.9979 82.8777 23.8149C86.0592 23.5405 88.7935 24.2419 90.1556 24.9127C90.957 25.3072 91.8724 25.4045 92.7388 25.1874C93.6053 24.9703 94.3667 24.4529 94.8875 23.7272C95.4083 23.0015 95.6547 22.1145 95.583 21.2242C95.5113 20.3338 95.1261 19.4978 94.4959 18.8648C94.2113 18.5801 93.886 18.3362 93.4997 18.1532C90.4605 16.6387 86.232 15.9475 82.2068 16.2931C78.7406 16.5879 73.7905 17.7771 69.8262 21.7414C62.9651 28.6432 64.8049 38.1065 64.8862 38.4927Z" fill="url(#paint0_radial_342_1741)"/>
<path d="M64.8862 38.4927C65.059 39.1737 65.3944 39.8141 65.923 40.3427C66.5422 40.9632 67.356 41.352 68.2278 41.4439C69.0996 41.5358 69.9765 41.3253 70.7115 40.8476C71.4465 40.3699 71.995 39.654 72.265 38.82C72.5351 37.986 72.5102 37.0845 72.1946 36.2667C72.1438 35.606 72.093 34.559 72.2556 33.3392C72.5707 30.8082 73.5668 28.694 75.183 27.0778C77.531 24.7298 80.6618 23.9979 82.8777 23.8149C86.0592 23.5405 88.7935 24.2419 90.1556 24.9127C90.957 25.3072 91.8724 25.4045 92.7388 25.1874C93.6053 24.9703 94.3667 24.4529 94.8875 23.7272C95.4083 23.0015 95.6547 22.1145 95.583 21.2242C95.5113 20.3338 95.1261 19.4978 94.4959 18.8648C94.2113 18.5801 93.886 18.3362 93.4997 18.1532C90.4605 16.6387 86.232 15.9475 82.2068 16.2931C78.7406 16.5879 73.7905 17.7771 69.8262 21.7414C62.9651 28.6432 64.8049 38.1065 64.8862 38.4927Z" fill="url(#paint1_radial_342_1741)"/>
<path d="M64.8862 38.4927C65.059 39.1737 65.3944 39.8141 65.923 40.3427C66.5422 40.9632 67.356 41.352 68.2278 41.4439C69.0996 41.5358 69.9765 41.3253 70.7115 40.8476C71.4465 40.3699 71.995 39.654 72.265 38.82C72.5351 37.986 72.5102 37.0845 72.1946 36.2667C72.1438 35.606 72.093 34.559 72.2556 33.3392C72.5707 30.8082 73.5668 28.694 75.183 27.0778C77.531 24.7298 80.6618 23.9979 82.8777 23.8149C86.0592 23.5405 88.7935 24.2419 90.1556 24.9127C90.957 25.3072 91.8724 25.4045 92.7388 25.1874C93.6053 24.9703 94.3667 24.4529 94.8875 23.7272C95.4083 23.0015 95.6547 22.1145 95.583 21.2242C95.5113 20.3338 95.1261 19.4978 94.4959 18.8648C94.2113 18.5801 93.886 18.3362 93.4997 18.1532C90.4605 16.6387 86.232 15.9475 82.2068 16.2931C78.7406 16.5879 73.7905 17.7771 69.8262 21.7414C62.9651 28.6432 64.8049 38.1065 64.8862 38.4927Z" fill="url(#paint2_radial_342_1741)"/>
<path d="M64.8862 38.4927C65.059 39.1737 65.3944 39.8141 65.923 40.3427C66.5422 40.9632 67.356 41.352 68.2278 41.4439C69.0996 41.5358 69.9765 41.3253 70.7115 40.8476C71.4465 40.3699 71.995 39.654 72.265 38.82C72.5351 37.986 72.5102 37.0845 72.1946 36.2667C72.1438 35.606 72.093 34.559 72.2556 33.3392C72.5707 30.8082 73.5668 28.694 75.183 27.0778C77.531 24.7298 80.6618 23.9979 82.8777 23.8149C86.0592 23.5405 88.7935 24.2419 90.1556 24.9127C90.957 25.3072 91.8724 25.4045 92.7388 25.1874C93.6053 24.9703 94.3667 24.4529 94.8875 23.7272C95.4083 23.0015 95.6547 22.1145 95.583 21.2242C95.5113 20.3338 95.1261 19.4978 94.4959 18.8648C94.2113 18.5801 93.886 18.3362 93.4997 18.1532C90.4605 16.6387 86.232 15.9475 82.2068 16.2931C78.7406 16.5879 73.7905 17.7771 69.8262 21.7414C62.9651 28.6432 64.8049 38.1065 64.8862 38.4927Z" fill="url(#paint3_radial_342_1741)"/>
<g filter="url(#filter0_i_342_1741)">
<path d="M67.3575 37.9539C67.51 38.5942 67.8352 39.2041 68.3028 39.7124C68.9914 40.435 69.9336 40.8622 70.931 40.904C71.9283 40.9457 72.9029 40.5986 73.6494 39.936C73.8121 39.7937 73.9442 39.6412 74.0865 39.4786C75.0826 40.1901 76.3634 40.4544 77.6238 40.0885L92.3321 36.1954C94.2837 35.6668 96.3674 36.2259 97.8007 37.6591L102.334 42.1925C102.893 42.7516 103.808 42.7516 104.367 42.1925L113.515 33.0443C114.074 32.4853 114.074 31.5705 113.515 31.0114L105.81 23.3066C102.029 19.5253 97.1806 16.9537 91.9052 16.0694C90.7972 15.8762 89.6283 15.7644 88.4187 15.7339C87.1989 15.6526 85.9487 15.6628 84.7086 15.7644C81.2424 16.0592 76.2922 17.2485 72.328 21.2127C65.4364 28.084 67.2762 37.5473 67.3575 37.9539ZM84.8204 29.1513C84.5764 29.3952 84.2817 29.568 83.9462 29.6595L75.3469 32.1397C75.1538 32.1905 74.9708 32.2718 74.798 32.343C75.1741 30.0153 76.1398 28.0738 77.6645 26.5491C77.8576 26.356 78.0507 26.1832 78.254 26.0002C80.1751 24.3637 83.0416 24.506 84.8306 26.295C85.6132 27.0777 85.6132 28.3584 84.8204 29.1513Z" fill="#F5BEAE"/>
<path d="M67.3575 37.9539C67.51 38.5942 67.8352 39.2041 68.3028 39.7124C68.9914 40.435 69.9336 40.8622 70.931 40.904C71.9283 40.9457 72.9029 40.5986 73.6494 39.936C73.8121 39.7937 73.9442 39.6412 74.0865 39.4786C75.0826 40.1901 76.3634 40.4544 77.6238 40.0885L92.3321 36.1954C94.2837 35.6668 96.3674 36.2259 97.8007 37.6591L102.334 42.1925C102.893 42.7516 103.808 42.7516 104.367 42.1925L113.515 33.0443C114.074 32.4853 114.074 31.5705 113.515 31.0114L105.81 23.3066C102.029 19.5253 97.1806 16.9537 91.9052 16.0694C90.7972 15.8762 89.6283 15.7644 88.4187 15.7339C87.1989 15.6526 85.9487 15.6628 84.7086 15.7644C81.2424 16.0592 76.2922 17.2485 72.328 21.2127C65.4364 28.084 67.2762 37.5473 67.3575 37.9539ZM84.8204 29.1513C84.5764 29.3952 84.2817 29.568 83.9462 29.6595L75.3469 32.1397C75.1538 32.1905 74.9708 32.2718 74.798 32.343C75.1741 30.0153 76.1398 28.0738 77.6645 26.5491C77.8576 26.356 78.0507 26.1832 78.254 26.0002C80.1751 24.3637 83.0416 24.506 84.8306 26.295C85.6132 27.0777 85.6132 28.3584 84.8204 29.1513Z" fill="url(#paint4_radial_342_1741)"/>
<path d="M67.3575 37.9539C67.51 38.5942 67.8352 39.2041 68.3028 39.7124C68.9914 40.435 69.9336 40.8622 70.931 40.904C71.9283 40.9457 72.9029 40.5986 73.6494 39.936C73.8121 39.7937 73.9442 39.6412 74.0865 39.4786C75.0826 40.1901 76.3634 40.4544 77.6238 40.0885L92.3321 36.1954C94.2837 35.6668 96.3674 36.2259 97.8007 37.6591L102.334 42.1925C102.893 42.7516 103.808 42.7516 104.367 42.1925L113.515 33.0443C114.074 32.4853 114.074 31.5705 113.515 31.0114L105.81 23.3066C102.029 19.5253 97.1806 16.9537 91.9052 16.0694C90.7972 15.8762 89.6283 15.7644 88.4187 15.7339C87.1989 15.6526 85.9487 15.6628 84.7086 15.7644C81.2424 16.0592 76.2922 17.2485 72.328 21.2127C65.4364 28.084 67.2762 37.5473 67.3575 37.9539ZM84.8204 29.1513C84.5764 29.3952 84.2817 29.568 83.9462 29.6595L75.3469 32.1397C75.1538 32.1905 74.9708 32.2718 74.798 32.343C75.1741 30.0153 76.1398 28.0738 77.6645 26.5491C77.8576 26.356 78.0507 26.1832 78.254 26.0002C80.1751 24.3637 83.0416 24.506 84.8306 26.295C85.6132 27.0777 85.6132 28.3584 84.8204 29.1513Z" fill="url(#paint5_radial_342_1741)"/>
<path d="M67.3575 37.9539C67.51 38.5942 67.8352 39.2041 68.3028 39.7124C68.9914 40.435 69.9336 40.8622 70.931 40.904C71.9283 40.9457 72.9029 40.5986 73.6494 39.936C73.8121 39.7937 73.9442 39.6412 74.0865 39.4786C75.0826 40.1901 76.3634 40.4544 77.6238 40.0885L92.3321 36.1954C94.2837 35.6668 96.3674 36.2259 97.8007 37.6591L102.334 42.1925C102.893 42.7516 103.808 42.7516 104.367 42.1925L113.515 33.0443C114.074 32.4853 114.074 31.5705 113.515 31.0114L105.81 23.3066C102.029 19.5253 97.1806 16.9537 91.9052 16.0694C90.7972 15.8762 89.6283 15.7644 88.4187 15.7339C87.1989 15.6526 85.9487 15.6628 84.7086 15.7644C81.2424 16.0592 76.2922 17.2485 72.328 21.2127C65.4364 28.084 67.2762 37.5473 67.3575 37.9539ZM84.8204 29.1513C84.5764 29.3952 84.2817 29.568 83.9462 29.6595L75.3469 32.1397C75.1538 32.1905 74.9708 32.2718 74.798 32.343C75.1741 30.0153 76.1398 28.0738 77.6645 26.5491C77.8576 26.356 78.0507 26.1832 78.254 26.0002C80.1751 24.3637 83.0416 24.506 84.8306 26.295C85.6132 27.0777 85.6132 28.3584 84.8204 29.1513Z" fill="url(#paint6_radial_342_1741)"/>
<path d="M67.3575 37.9539C67.51 38.5942 67.8352 39.2041 68.3028 39.7124C68.9914 40.435 69.9336 40.8622 70.931 40.904C71.9283 40.9457 72.9029 40.5986 73.6494 39.936C73.8121 39.7937 73.9442 39.6412 74.0865 39.4786C75.0826 40.1901 76.3634 40.4544 77.6238 40.0885L92.3321 36.1954C94.2837 35.6668 96.3674 36.2259 97.8007 37.6591L102.334 42.1925C102.893 42.7516 103.808 42.7516 104.367 42.1925L113.515 33.0443C114.074 32.4853 114.074 31.5705 113.515 31.0114L105.81 23.3066C102.029 19.5253 97.1806 16.9537 91.9052 16.0694C90.7972 15.8762 89.6283 15.7644 88.4187 15.7339C87.1989 15.6526 85.9487 15.6628 84.7086 15.7644C81.2424 16.0592 76.2922 17.2485 72.328 21.2127C65.4364 28.084 67.2762 37.5473 67.3575 37.9539ZM84.8204 29.1513C84.5764 29.3952 84.2817 29.568 83.9462 29.6595L75.3469 32.1397C75.1538 32.1905 74.9708 32.2718 74.798 32.343C75.1741 30.0153 76.1398 28.0738 77.6645 26.5491C77.8576 26.356 78.0507 26.1832 78.254 26.0002C80.1751 24.3637 83.0416 24.506 84.8306 26.295C85.6132 27.0777 85.6132 28.3584 84.8204 29.1513Z" fill="url(#paint7_radial_342_1741)"/>
<path d="M67.3575 37.9539C67.51 38.5942 67.8352 39.2041 68.3028 39.7124C68.9914 40.435 69.9336 40.8622 70.931 40.904C71.9283 40.9457 72.9029 40.5986 73.6494 39.936C73.8121 39.7937 73.9442 39.6412 74.0865 39.4786C75.0826 40.1901 76.3634 40.4544 77.6238 40.0885L92.3321 36.1954C94.2837 35.6668 96.3674 36.2259 97.8007 37.6591L102.334 42.1925C102.893 42.7516 103.808 42.7516 104.367 42.1925L113.515 33.0443C114.074 32.4853 114.074 31.5705 113.515 31.0114L105.81 23.3066C102.029 19.5253 97.1806 16.9537 91.9052 16.0694C90.7972 15.8762 89.6283 15.7644 88.4187 15.7339C87.1989 15.6526 85.9487 15.6628 84.7086 15.7644C81.2424 16.0592 76.2922 17.2485 72.328 21.2127C65.4364 28.084 67.2762 37.5473 67.3575 37.9539ZM84.8204 29.1513C84.5764 29.3952 84.2817 29.568 83.9462 29.6595L75.3469 32.1397C75.1538 32.1905 74.9708 32.2718 74.798 32.343C75.1741 30.0153 76.1398 28.0738 77.6645 26.5491C77.8576 26.356 78.0507 26.1832 78.254 26.0002C80.1751 24.3637 83.0416 24.506 84.8306 26.295C85.6132 27.0777 85.6132 28.3584 84.8204 29.1513Z" fill="url(#paint8_radial_342_1741)"/>
</g>
<path d="M77.5648 40.1057C76.5051 40.3789 75.3804 40.2223 74.4356 39.6701C73.4909 39.1178 72.8026 38.2147 72.5206 37.1573C72.2387 36.0999 72.386 34.974 72.9303 34.0247C73.4747 33.0753 74.3721 32.3796 75.4271 32.0889L87.6573 28.6288C89.8721 28.0383 91.8553 29.629 92.4468 31.8429C93.0374 34.0578 91.8166 36.3296 89.6028 36.9191L77.5648 40.1057Z" fill="url(#paint9_radial_342_1741)"/>
<path d="M77.5648 40.1057C76.5051 40.3789 75.3804 40.2223 74.4356 39.6701C73.4909 39.1178 72.8026 38.2147 72.5206 37.1573C72.2387 36.0999 72.386 34.974 72.9303 34.0247C73.4747 33.0753 74.3721 32.3796 75.4271 32.0889L87.6573 28.6288C89.8721 28.0383 91.8553 29.629 92.4468 31.8429C93.0374 34.0578 91.8166 36.3296 89.6028 36.9191L77.5648 40.1057Z" fill="url(#paint10_radial_342_1741)"/>
<path d="M77.5648 40.1057C76.5051 40.3789 75.3804 40.2223 74.4356 39.6701C73.4909 39.1178 72.8026 38.2147 72.5206 37.1573C72.2387 36.0999 72.386 34.974 72.9303 34.0247C73.4747 33.0753 74.3721 32.3796 75.4271 32.0889L87.6573 28.6288C89.8721 28.0383 91.8553 29.629 92.4468 31.8429C93.0374 34.0578 91.8166 36.3296 89.6028 36.9191L77.5648 40.1057Z" fill="url(#paint11_linear_342_1741)"/>
<path d="M72.3285 21.2127C73.602 19.942 75.0605 18.8714 76.6545 18.0373L88.4842 17.6084L84.9591 26.3418L84.9316 26.4038C84.8991 26.3672 84.8655 26.331 84.831 26.2951C83.042 24.5061 80.1756 24.3638 78.2544 26.0003L78.225 26.0277C78.0318 26.2005 77.8489 26.3652 77.6649 26.5492C76.1473 28.0668 75.1837 29.996 74.8046 32.3085C73.9044 32.7115 73.177 33.4215 72.7524 34.3117C72.3278 35.2019 72.2337 36.214 72.487 37.1672C72.7747 38.2416 73.349 38.8728 74.0869 39.4786L74.0737 39.4939C73.7277 39.9161 73.2959 40.2601 72.807 40.5029C72.3181 40.7458 71.7832 40.8821 71.2377 40.9027C70.6922 40.9234 70.1485 40.828 69.6426 40.6228C69.1368 40.4176 68.6802 40.1073 68.3032 39.7124C67.8357 39.2042 67.5104 38.5943 67.3579 37.9539C67.2766 37.5474 65.4368 28.0841 72.3285 21.2127Z" fill="url(#paint12_radial_342_1741)"/>
<path d="M72.3285 21.2127C73.602 19.942 75.0605 18.8714 76.6545 18.0373L88.4842 17.6084L84.9591 26.3418L84.9316 26.4038C84.8991 26.3672 84.8655 26.331 84.831 26.2951C83.042 24.5061 80.1756 24.3638 78.2544 26.0003L78.225 26.0277C78.0318 26.2005 77.8489 26.3652 77.6649 26.5492C76.1473 28.0668 75.1837 29.996 74.8046 32.3085C73.9044 32.7115 73.177 33.4215 72.7524 34.3117C72.3278 35.2019 72.2337 36.214 72.487 37.1672C72.7747 38.2416 73.349 38.8728 74.0869 39.4786L74.0737 39.4939C73.7277 39.9161 73.2959 40.2601 72.807 40.5029C72.3181 40.7458 71.7832 40.8821 71.2377 40.9027C70.6922 40.9234 70.1485 40.828 69.6426 40.6228C69.1368 40.4176 68.6802 40.1073 68.3032 39.7124C67.8357 39.2042 67.5104 38.5943 67.3579 37.9539C67.2766 37.5474 65.4368 28.0841 72.3285 21.2127Z" fill="url(#paint13_radial_342_1741)"/>
<path d="M72.3285 21.2127C73.602 19.942 75.0605 18.8714 76.6545 18.0373L88.4842 17.6084L84.9591 26.3418L84.9316 26.4038C84.8991 26.3672 84.8655 26.331 84.831 26.2951C83.042 24.5061 80.1756 24.3638 78.2544 26.0003L78.225 26.0277C78.0318 26.2005 77.8489 26.3652 77.6649 26.5492C76.1473 28.0668 75.1837 29.996 74.8046 32.3085C73.9044 32.7115 73.177 33.4215 72.7524 34.3117C72.3278 35.2019 72.2337 36.214 72.487 37.1672C72.7747 38.2416 73.349 38.8728 74.0869 39.4786L74.0737 39.4939C73.7277 39.9161 73.2959 40.2601 72.807 40.5029C72.3181 40.7458 71.7832 40.8821 71.2377 40.9027C70.6922 40.9234 70.1485 40.828 69.6426 40.6228C69.1368 40.4176 68.6802 40.1073 68.3032 39.7124C67.8357 39.2042 67.5104 38.5943 67.3579 37.9539C67.2766 37.5474 65.4368 28.0841 72.3285 21.2127Z" fill="url(#paint14_radial_342_1741)"/>
<g filter="url(#filter1_f_342_1741)">
<path d="M71.7408 25.3253C76.2499 19.7713 85.0789 18.1572 90.2049 20.9108" stroke="url(#paint15_linear_342_1741)" stroke-width="2" stroke-linecap="round"/>
</g>
<g filter="url(#filter2_f_342_1741)">
<path d="M76.2875 34.7907L86.938 31.9324" stroke="url(#paint16_linear_342_1741)" stroke-linecap="round"/>
</g>
<path d="M67.3575 37.9539C67.51 38.5942 67.8352 39.2041 68.3028 39.7124C68.9914 40.435 69.9336 40.8622 70.931 40.904C71.9283 40.9457 72.9029 40.5986 73.6494 39.936C73.8121 39.7937 73.9442 39.6412 74.0865 39.4786C75.0826 40.1901 76.3634 40.4544 77.6238 40.0885L92.3321 36.1954C94.2837 35.6668 96.3674 36.2259 97.8007 37.6591L102.334 42.1925C102.893 42.7516 103.808 42.7516 104.367 42.1925L113.515 33.0443C114.074 32.4853 114.074 31.5705 113.515 31.0114L105.81 23.3066C102.029 19.5253 97.1806 16.9537 91.9052 16.0694C90.7972 15.8762 89.6283 15.7644 88.4187 15.7339C87.1989 15.6526 85.9487 15.6628 84.7086 15.7644C81.2424 16.0592 76.2922 17.2485 72.328 21.2127C65.4364 28.084 67.2762 37.5473 67.3575 37.9539ZM84.8204 29.1513C84.5764 29.3952 84.2817 29.568 83.9462 29.6595L75.3469 32.1397C75.1538 32.1905 74.9708 32.2718 74.798 32.343C75.1741 30.0153 76.1398 28.0738 77.6645 26.5491C77.8576 26.356 78.0507 26.1832 78.254 26.0002C80.1751 24.3637 83.0416 24.506 84.8306 26.295C85.6132 27.0777 85.6132 28.3584 84.8204 29.1513Z" fill="url(#paint17_linear_342_1741)"/>
<path d="M67.3575 37.9539C67.51 38.5942 67.8352 39.2041 68.3028 39.7124C68.9914 40.435 69.9336 40.8622 70.931 40.904C71.9283 40.9457 72.9029 40.5986 73.6494 39.936C73.8121 39.7937 73.9442 39.6412 74.0865 39.4786C75.0826 40.1901 76.3634 40.4544 77.6238 40.0885L92.3321 36.1954C94.2837 35.6668 96.3674 36.2259 97.8007 37.6591L102.334 42.1925C102.893 42.7516 103.808 42.7516 104.367 42.1925L113.515 33.0443C114.074 32.4853 114.074 31.5705 113.515 31.0114L105.81 23.3066C102.029 19.5253 97.1806 16.9537 91.9052 16.0694C90.7972 15.8762 89.6283 15.7644 88.4187 15.7339C87.1989 15.6526 85.9487 15.6628 84.7086 15.7644C81.2424 16.0592 76.2922 17.2485 72.328 21.2127C65.4364 28.084 67.2762 37.5473 67.3575 37.9539ZM84.8204 29.1513C84.5764 29.3952 84.2817 29.568 83.9462 29.6595L75.3469 32.1397C75.1538 32.1905 74.9708 32.2718 74.798 32.343C75.1741 30.0153 76.1398 28.0738 77.6645 26.5491C77.8576 26.356 78.0507 26.1832 78.254 26.0002C80.1751 24.3637 83.0416 24.506 84.8306 26.295C85.6132 27.0777 85.6132 28.3584 84.8204 29.1513Z" fill="url(#paint18_linear_342_1741)"/>
<path d="M67.3575 37.9539C67.51 38.5942 67.8352 39.2041 68.3028 39.7124C68.9914 40.435 69.9336 40.8622 70.931 40.904C71.9283 40.9457 72.9029 40.5986 73.6494 39.936C73.8121 39.7937 73.9442 39.6412 74.0865 39.4786C75.0826 40.1901 76.3634 40.4544 77.6238 40.0885L92.3321 36.1954C94.2837 35.6668 96.3674 36.2259 97.8007 37.6591L102.334 42.1925C102.893 42.7516 103.808 42.7516 104.367 42.1925L113.515 33.0443C114.074 32.4853 114.074 31.5705 113.515 31.0114L105.81 23.3066C102.029 19.5253 97.1806 16.9537 91.9052 16.0694C90.7972 15.8762 89.6283 15.7644 88.4187 15.7339C87.1989 15.6526 85.9487 15.6628 84.7086 15.7644C81.2424 16.0592 76.2922 17.2485 72.328 21.2127C65.4364 28.084 67.2762 37.5473 67.3575 37.9539ZM84.8204 29.1513C84.5764 29.3952 84.2817 29.568 83.9462 29.6595L75.3469 32.1397C75.1538 32.1905 74.9708 32.2718 74.798 32.343C75.1741 30.0153 76.1398 28.0738 77.6645 26.5491C77.8576 26.356 78.0507 26.1832 78.254 26.0002C80.1751 24.3637 83.0416 24.506 84.8306 26.295C85.6132 27.0777 85.6132 28.3584 84.8204 29.1513Z" fill="url(#paint19_linear_342_1741)"/>
</g>
<defs>
<filter id="filter0_i_342_1741" x="67.0762" y="14.6797" width="47.3574" height="27.9321" filterUnits="userSpaceOnUse" color-interpolation-filters="sRGB">
<feFlood flood-opacity="0" result="BackgroundImageFix"/>
<feBlend mode="normal" in="SourceGraphic" in2="BackgroundImageFix" result="shape"/>
<feColorMatrix in="SourceAlpha" type="matrix" values="0 0 0 0 0 0 0 0 0 0 0 0 0 0 0 0 0 0 127 0" result="hardAlpha"/>
<feOffset dx="0.5" dy="-1"/>
<feGaussianBlur stdDeviation="1"/>
<feComposite in2="hardAlpha" operator="arithmetic" k2="-1" k3="1"/>
<feColorMatrix type="matrix" values="0 0 0 0 0.709804 0 0 0 0 0.478431 0 0 0 0 0.596078 0 0 0 1 0"/>
<feBlend mode="normal" in2="shape" result="effect1_innerShadow_342_1741"/>
</filter>
<filter id="filter1_f_342_1741" x="69.2402" y="17.0952" width="23.4648" height="10.7302" filterUnits="userSpaceOnUse" color-interpolation-filters="sRGB">
<feFlood flood-opacity="0" result="BackgroundImageFix"/>
<feBlend mode="normal" in="SourceGraphic" in2="BackgroundImageFix" result="shape"/>
<feGaussianBlur stdDeviation="0.75" result="effect1_foregroundBlur_342_1741"/>
</filter>
<filter id="filter2_f_342_1741" x="74.2871" y="29.9321" width="14.6504" height="6.85864" filterUnits="userSpaceOnUse" color-interpolation-filters="sRGB">
<feFlood flood-opacity="0" result="BackgroundImageFix"/>
<feBlend mode="normal" in="SourceGraphic" in2="BackgroundImageFix" result="shape"/>
<feGaussianBlur stdDeviation="0.75" result="effect1_foregroundBlur_342_1741"/>
</filter>
<radialGradient id="paint0_radial_342_1741" cx="0" cy="0" r="1" gradientUnits="userSpaceOnUse" gradientTransform="translate(70.2704 40.488) rotate(-140.509) scale(7.48127 10.1593)">
<stop stop-color="#E0AC8F"/>
<stop offset="1" stop-color="#E0AC8F" stop-opacity="0"/>
</radialGradient>
<radialGradient id="paint1_radial_342_1741" cx="0" cy="0" r="1" gradientUnits="userSpaceOnUse" gradientTransform="translate(72.9363 29.96) rotate(-167.25) scale(6.44814 15.0122)">
<stop offset="0.263" stop-color="#E0AC8F"/>
<stop offset="1" stop-color="#E0AC8F" stop-opacity="0"/>
</radialGradient>
<radialGradient id="paint2_radial_342_1741" cx="0" cy="0" r="1" gradientUnits="userSpaceOnUse" gradientTransform="translate(80.7175 14.2693) rotate(158.081) scale(14.2801 4.44446)">
<stop stop-color="#E4B8A9"/>
<stop offset="1" stop-color="#E4B8A9" stop-opacity="0"/>
</radialGradient>
<radialGradient id="paint3_radial_342_1741" cx="0" cy="0" r="1" gradientUnits="userSpaceOnUse" gradientTransform="translate(72.2515 14.9697) rotate(99.377) scale(28.0738 14.7981)">
<stop offset="0.914" stop-color="#E0AC8F" stop-opacity="0"/>
<stop offset="1" stop-color="#E0AC8F"/>
</radialGradient>
<radialGradient id="paint4_radial_342_1741" cx="0" cy="0" r="1" gradientUnits="userSpaceOnUse" gradientTransform="translate(111.863 39.3975) rotate(-158.656) scale(44.5585 42.5253)">
<stop offset="0.869" stop-color="#FFE1C3" stop-opacity="0"/>
<stop offset="1" stop-color="#FFE1C3"/>
</radialGradient>
<radialGradient id="paint5_radial_342_1741" cx="0" cy="0" r="1" gradientUnits="userSpaceOnUse" gradientTransform="translate(108.005 38.0464) rotate(-135) scale(14.9701 7.81697)">
<stop stop-color="#FCCAAF"/>
<stop offset="1" stop-color="#FCCAAF" stop-opacity="0"/>
</radialGradient>
<radialGradient id="paint6_radial_342_1741" cx="0" cy="0" r="1" gradientUnits="userSpaceOnUse" gradientTransform="translate(93.9167 38.3716) rotate(-75.1281) scale(5.88475 6.01825)">
<stop stop-color="#D5AA92"/>
<stop offset="1" stop-color="#D5AA92" stop-opacity="0"/>
</radialGradient>
<radialGradient id="paint7_radial_342_1741" cx="0" cy="0" r="1" gradientUnits="userSpaceOnUse" gradientTransform="translate(83.2073 25.534) rotate(-5.641) scale(10.3418 7.28151)">
<stop offset="0.293" stop-color="#FFE2C4"/>
<stop offset="1" stop-color="#FFE2C4" stop-opacity="0"/>
</radialGradient>
<radialGradient id="paint8_radial_342_1741" cx="0" cy="0" r="1" gradientUnits="userSpaceOnUse" gradientTransform="translate(80.8144 26.0167) rotate(-5.599) scale(6.78844 5.18396)">
<stop offset="0.05" stop-color="#E3A588"/>
<stop offset="1" stop-color="#E3A588" stop-opacity="0"/>
</radialGradient>
<radialGradient id="paint9_radial_342_1741" cx="0" cy="0" r="1" gradientUnits="userSpaceOnUse" gradientTransform="translate(73.6422 35.1647) rotate(-15.4459) scale(3.15819 5.23384)">
<stop stop-color="#FFE1C3"/>
<stop offset="1" stop-color="#FFE1C3" stop-opacity="0"/>
</radialGradient>
<radialGradient id="paint10_radial_342_1741" cx="0" cy="0" r="1" gradientUnits="userSpaceOnUse" gradientTransform="translate(73.3048 39.8689) rotate(-41.8636) scale(3.28422 4.0916)">
<stop stop-color="#E1BAA2"/>
<stop offset="1" stop-color="#E1BAA2" stop-opacity="0"/>
</radialGradient>
<linearGradient id="paint11_linear_342_1741" x1="81.6266" y1="39.9634" x2="80.9018" y2="36.1059" gradientUnits="userSpaceOnUse">
<stop stop-color="#DCAA90"/>
<stop offset="1" stop-color="#DCAA90" stop-opacity="0"/>
</linearGradient>
<radialGradient id="paint12_radial_342_1741" cx="0" cy="0" r="1" gradientUnits="userSpaceOnUse" gradientTransform="translate(79.9865 28.6777) rotate(-118.309) scale(5.67174 6.83279)">
<stop stop-color="#E89E87"/>
<stop offset="1" stop-color="#E89E87" stop-opacity="0"/>
</radialGradient>
<radialGradient id="paint13_radial_342_1741" cx="0" cy="0" r="1" gradientUnits="userSpaceOnUse" gradientTransform="translate(76.5346 34.2032) rotate(-148.461) scale(5.21246 6.62173)">
<stop offset="0.457" stop-color="#DF927E"/>
<stop offset="1" stop-color="#DF927E" stop-opacity="0"/>
</radialGradient>
<radialGradient id="paint14_radial_342_1741" cx="0" cy="0" r="1" gradientUnits="userSpaceOnUse" gradientTransform="translate(73.4655 41.1717) rotate(-121.35) scale(6.47187 5.18388)">
<stop stop-color="#D7A88D"/>
<stop offset="1" stop-color="#D7A88D" stop-opacity="0"/>
</radialGradient>
<linearGradient id="paint15_linear_342_1741" x1="75.1572" y1="20.7685" x2="87.8101" y2="12.9295" gradientUnits="userSpaceOnUse">
<stop stop-color="#FFE3C8"/>
<stop offset="1" stop-color="#FFE3C8" stop-opacity="0"/>
</linearGradient>
<linearGradient id="paint16_linear_342_1741" x1="74.5127" y1="34.4959" x2="82.06" y2="27.6195" gradientUnits="userSpaceOnUse">
<stop stop-color="#FFE2C8"/>
<stop offset="1" stop-color="#FFE2C8" stop-opacity="0"/>
</linearGradient>
<linearGradient id="paint17_linear_342_1741" x1="115.027" y1="20.5062" x2="103.846" y2="31.6874" gradientUnits="userSpaceOnUse">
<stop stop-color="#B67A95"/>
<stop offset="1" stop-color="#B67A95" stop-opacity="0"/>
</linearGradient>
<linearGradient id="paint18_linear_342_1741" x1="108.76" y1="37.4822" x2="107.543" y2="36.2655" gradientUnits="userSpaceOnUse">
<stop stop-color="#D49992"/>
<stop offset="1" stop-color="#D49992" stop-opacity="0"/>
</linearGradient>
<linearGradient id="paint19_linear_342_1741" x1="109.054" y1="37.776" x2="108.352" y2="37.0736" gradientUnits="userSpaceOnUse">
<stop stop-color="#E8B09D"/>
<stop offset="1" stop-color="#E8B09D" stop-opacity="0"/>
</linearGradient>
<clipPath id="clip0_342_1741">
<rect width="82.3794" height="70.4561" fill="white" transform="translate(0.0351562 23.9993)"/>
</clipPath>
<clipPath id="clip1_342_1741">
<rect width="46" height="46" fill="white" transform="translate(87.5273 65.0488) rotate(-135)"/>
</clipPath>
</defs>
</svg>
