<svg width="34" height="34" viewBox="0 0 34 34" fill="none" xmlns="http://www.w3.org/2000/svg">
<rect width="34" height="34" rx="3.57895" fill="url(#paint0_linear_205_78)"/>
<path d="M16.5919 29.5301C16.5919 29.397 16.5919 29.315 16.5919 29.233C16.5919 28.2979 16.5894 27.3636 16.5936 26.4286C16.5953 25.9974 16.9929 25.7346 17.3529 25.9221C17.5664 26.0343 17.6459 26.2218 17.6451 26.4595C17.6417 27.3871 17.6434 28.3146 17.6434 29.243C17.6434 29.3192 17.6434 29.3954 17.6434 29.5134C17.7363 29.4707 17.8024 29.4456 17.8644 29.4121C18.5985 29.012 19.3319 28.6101 20.0652 28.2092C20.102 28.1891 20.138 28.1681 20.1757 28.1497C20.4603 28.0124 20.7634 28.1003 20.8956 28.3582C21.0304 28.621 20.9375 28.914 20.6571 29.0697C19.8827 29.4983 19.1058 29.9219 18.3298 30.3472C17.9749 30.5414 17.6183 30.7306 17.2675 30.9315C17.1587 30.9943 17.0758 30.9993 16.9628 30.9365C15.8469 30.3187 14.7276 29.7076 13.6092 29.094C13.2911 28.919 13.1798 28.621 13.3288 28.3473C13.4795 28.0702 13.7867 28.0032 14.1082 28.179C14.8482 28.5825 15.5882 28.9868 16.3282 29.3912C16.4002 29.4305 16.4739 29.4682 16.5928 29.5301H16.5919Z" fill="white" fill-opacity="0.76"/>
<path d="M27.8094 11.8441C27.5482 11.983 27.3289 12.0977 27.112 12.2166C26.5863 12.5046 26.0614 12.7951 25.5366 13.0839C25.2335 13.2505 24.9255 13.1785 24.7764 12.9064C24.6299 12.6385 24.7354 12.3372 25.0368 12.1706C25.6471 11.834 26.2582 11.4992 26.8684 11.1635C26.9647 11.1099 27.0593 11.0522 27.1849 10.9785C26.9354 10.837 26.7136 10.7106 26.4909 10.5867C25.925 10.2703 25.3541 9.96472 24.7965 9.63322C24.6651 9.55536 24.5429 9.41054 24.4876 9.26906C24.4089 9.06648 24.4876 8.86891 24.6718 8.73581C24.8685 8.59434 25.0736 8.60271 25.2804 8.71823C25.853 9.03718 26.4264 9.35278 26.9982 9.67256C27.5641 9.98816 28.1266 10.3105 28.6951 10.6219C28.8097 10.6847 28.8474 10.7583 28.8466 10.8847C28.8416 12.3003 28.8432 13.7159 28.8407 15.1307C28.8407 15.4965 28.6406 15.7225 28.3351 15.7175C28.0019 15.7116 27.8102 15.4973 27.8094 15.124C27.8077 14.1261 27.8094 13.1291 27.8094 12.1312C27.8094 12.05 27.8094 11.9697 27.8094 11.8432V11.8441Z" fill="white" fill-opacity="0.76"/>
<path d="M7.0275 10.9818C7.1899 11.0738 7.31966 11.1492 7.45109 11.2212C8.04378 11.5468 8.63814 11.8683 9.22916 12.1964C9.47444 12.3329 9.56317 12.584 9.4736 12.8402C9.39491 13.0637 9.14545 13.2144 8.90603 13.1675C8.8131 13.1491 8.72353 13.1022 8.63898 13.0562C7.96007 12.6862 7.28199 12.3128 6.60391 11.9411C6.5562 11.9152 6.50429 11.8959 6.42058 11.8582C6.41556 11.9654 6.40886 12.0525 6.40886 12.1387C6.40886 13.1357 6.41305 14.1336 6.41137 15.1306C6.41137 15.4654 6.23809 15.6789 5.95765 15.7107C5.62196 15.7492 5.37668 15.5266 5.375 15.1607C5.36998 14.2608 5.37417 13.3609 5.37417 12.4618C5.37417 11.9394 5.37751 11.4162 5.36998 10.8939C5.36831 10.7574 5.41267 10.6821 5.53238 10.6159C6.6667 9.98976 7.79766 9.35605 8.92947 8.72569C9.22832 8.55994 9.53639 8.63193 9.69377 8.89814C9.84529 9.1543 9.74065 9.46069 9.43258 9.63398C8.716 10.0375 7.9969 10.4351 7.27864 10.8361C7.20748 10.8763 7.13717 10.9181 7.02918 10.9809L7.0275 10.9818Z" fill="white" fill-opacity="0.76"/>
<path d="M5.37098 21.6561C5.37098 20.9378 5.36763 20.2196 5.37265 19.5022C5.37516 19.1707 5.57607 18.9547 5.87158 18.9455C6.16709 18.9363 6.39814 19.1522 6.40735 19.467C6.41739 19.822 6.41069 20.1777 6.41069 20.5335C6.41069 21.3907 6.41823 22.2488 6.40483 23.106C6.40149 23.3128 6.47683 23.4158 6.65011 23.5087C7.57682 24.0059 8.4985 24.5124 9.42102 25.0172C9.67467 25.1562 9.78517 25.373 9.7316 25.6191C9.68639 25.8267 9.49804 26 9.2695 26.0084C9.15732 26.0125 9.03008 25.9849 8.9313 25.9313C7.7861 25.311 6.64593 24.6815 5.50073 24.0604C5.38688 23.9984 5.36763 23.9214 5.36846 23.8092C5.37098 23.091 5.37014 22.3727 5.37014 21.6553L5.37098 21.6561Z" fill="white" fill-opacity="0.76"/>
<path d="M28.845 21.6761C28.845 22.3877 28.8425 23.0984 28.8475 23.81C28.8483 23.9355 28.8132 24.0084 28.6968 24.072C27.57 24.6831 26.4466 25.3009 25.324 25.9187C25.1189 26.0317 24.9147 26.061 24.7112 25.9296C24.5388 25.8174 24.4634 25.6508 24.4835 25.4457C24.5053 25.2289 24.6426 25.1025 24.8242 25.0037C25.7543 24.4973 26.6802 23.9833 27.6127 23.481C27.7643 23.3998 27.8136 23.306 27.8128 23.1377C27.8061 21.9381 27.8078 20.7394 27.8095 19.5398C27.8095 19.1346 28.0932 18.8801 28.4448 18.9621C28.696 19.0207 28.8442 19.2141 28.845 19.5004C28.8475 20.2254 28.845 20.9512 28.8458 21.6761H28.845Z" fill="white" fill-opacity="0.76"/>
<path d="M20.271 6.45287C20.1572 6.40683 20.0375 6.37083 19.9303 6.31223C19.053 5.8267 18.1757 5.33949 17.3034 4.84474C17.1686 4.76856 17.0682 4.756 16.9242 4.83804C16.0284 5.34869 15.1277 5.8493 14.2253 6.34739C13.8619 6.5483 13.4601 6.3499 13.4283 5.95896C13.4091 5.72791 13.512 5.55798 13.7163 5.44496C14.5317 4.9904 15.3453 4.53416 16.1607 4.07876C16.4286 3.92892 16.699 3.78409 16.9627 3.62755C17.064 3.56728 17.1385 3.56058 17.2473 3.62169C18.2971 4.21354 19.351 4.79786 20.4033 5.38553C20.4878 5.43324 20.5783 5.48012 20.6452 5.54793C20.8018 5.70615 20.8336 5.9012 20.7566 6.10881C20.6854 6.30219 20.4996 6.42357 20.2727 6.45371L20.271 6.45287Z" fill="white" fill-opacity="0.76"/>
<circle cx="17" cy="17" r="3.93957" stroke="white" stroke-width="0.990435"/>
<defs>
<linearGradient id="paint0_linear_205_78" x1="17" y1="0" x2="17" y2="34" gradientUnits="userSpaceOnUse">
<stop stop-color="#234E80"/>
<stop offset="1" stop-color="#18D2DE"/>
</linearGradient>
</defs>
</svg>
