<svg width="40" height="39" viewBox="0 0 40 39" fill="none" xmlns="http://www.w3.org/2000/svg">
<rect x="0.869141" y="0.0253906" width="38.6094" height="38.6094" rx="3" fill="black"/>
<path d="M19.5099 35.1011C19.5099 34.9297 19.5099 34.8241 19.5099 34.7185C19.5099 33.5146 19.5067 32.3119 19.5121 31.1081C19.5142 30.553 20.0261 30.2146 20.4896 30.456C20.7644 30.6005 20.8668 30.8419 20.8657 31.1479C20.8614 32.3421 20.8635 33.5362 20.8635 34.7314C20.8635 34.8295 20.8635 34.9276 20.8635 35.0795C20.9832 35.0246 21.0683 34.9922 21.148 34.9491C22.0932 34.434 23.0373 33.9166 23.9814 33.4004C24.0288 33.3745 24.0752 33.3476 24.1237 33.3239C24.4901 33.1471 24.8802 33.2603 25.0505 33.5922C25.224 33.9307 25.1044 34.3079 24.7434 34.5083C23.7465 35.0601 22.7463 35.6054 21.7473 36.1529C21.2903 36.403 20.8312 36.6465 20.3796 36.9052C20.2395 36.986 20.1328 36.9925 19.9873 36.9117C18.5507 36.1163 17.1098 35.3295 15.6699 34.5396C15.2604 34.3143 15.1171 33.9307 15.3089 33.5782C15.5029 33.2215 15.8984 33.1353 16.3123 33.3616C17.265 33.8811 18.2177 34.4016 19.1704 34.9222C19.2631 34.9728 19.3579 35.0213 19.511 35.1011H19.5099Z" fill="white"/>
<path d="M33.9508 12.3317C33.6145 12.5106 33.3322 12.6582 33.0531 12.8113C32.3762 13.182 31.7005 13.556 31.0248 13.9278C30.6346 14.1423 30.238 14.0496 30.0462 13.6993C29.8576 13.3545 29.9934 12.9665 30.3814 12.752C31.167 12.3188 31.9538 11.8877 32.7394 11.4555C32.8634 11.3865 32.9852 11.3122 33.1468 11.2173C32.8256 11.0352 32.54 10.8724 32.2534 10.7129C31.5248 10.3056 30.7898 9.91218 30.072 9.4854C29.9028 9.38517 29.7455 9.19872 29.6744 9.01659C29.5731 8.75578 29.6744 8.50143 29.9115 8.33007C30.1647 8.14793 30.4288 8.15871 30.695 8.30744C31.4321 8.71805 32.1704 9.12436 32.9065 9.53605C33.635 9.94236 34.3593 10.3573 35.091 10.7582C35.2387 10.839 35.2872 10.9339 35.2861 11.0966C35.2796 12.9191 35.2818 14.7415 35.2786 16.5629C35.2786 17.0338 35.021 17.3248 34.6276 17.3184C34.1987 17.3108 33.9519 17.0349 33.9508 16.5542C33.9486 15.2696 33.9508 13.986 33.9508 12.7014C33.9508 12.5968 33.9508 12.4934 33.9508 12.3306V12.3317Z" fill="white"/>
<path d="M7.195 11.2217C7.40408 11.3402 7.57113 11.4372 7.74034 11.5299C8.50337 11.9492 9.26856 12.363 10.0294 12.7855C10.3452 12.9611 10.4595 13.2845 10.3441 13.6143C10.2428 13.902 9.92167 14.096 9.61344 14.0356C9.49381 14.0119 9.37849 13.9516 9.26964 13.8923C8.3956 13.416 7.52263 12.9353 6.64967 12.4568C6.58824 12.4234 6.52142 12.3986 6.41365 12.3501C6.40718 12.488 6.39856 12.6001 6.39856 12.7111C6.39856 13.9947 6.40395 15.2793 6.40179 16.5629C6.40179 16.994 6.1787 17.2688 5.81766 17.3098C5.38549 17.3594 5.06972 17.0727 5.06756 16.6017C5.06109 15.4432 5.06648 14.2846 5.06648 13.1271C5.06648 12.4546 5.07079 11.781 5.06109 11.1085C5.05894 10.9329 5.11606 10.8359 5.27017 10.7507C6.7305 9.94458 8.18652 9.12873 9.64361 8.3172C10.0284 8.10381 10.425 8.19649 10.6276 8.53921C10.8227 8.869 10.6879 9.26345 10.2913 9.48654C9.36879 10.006 8.44302 10.5179 7.51832 11.0342C7.42672 11.0859 7.33619 11.1398 7.19716 11.2206L7.195 11.2217Z" fill="white"/>
<path d="M5.06332 24.9638C5.06332 24.0391 5.05901 23.1144 5.06548 22.1908C5.06871 21.764 5.32737 21.486 5.70781 21.4741C6.08825 21.4623 6.3857 21.7403 6.39756 22.1455C6.41049 22.6025 6.40187 23.0605 6.40187 23.5186C6.40187 24.6222 6.41157 25.7269 6.39432 26.8304C6.39001 27.0966 6.48701 27.2292 6.7101 27.3488C7.90315 27.989 9.08973 28.641 10.2774 29.2909C10.6039 29.4698 10.7462 29.7489 10.6772 30.0658C10.619 30.3331 10.3765 30.5562 10.0823 30.5669C9.93791 30.5723 9.77409 30.5368 9.64692 30.4678C8.17258 29.6692 6.70471 28.8587 5.23037 28.0591C5.0838 27.9793 5.05901 27.8802 5.06009 27.7357C5.06332 26.811 5.06225 25.8864 5.06225 24.9627L5.06332 24.9638Z" fill="white"/>
<path d="M35.2846 24.9898C35.2846 25.9059 35.2814 26.8209 35.2878 27.7369C35.2889 27.8986 35.2436 27.9924 35.0938 28.0743C33.6432 28.861 32.1969 29.6564 30.7517 30.4517C30.4876 30.5972 30.2246 30.635 29.9628 30.4657C29.7407 30.3213 29.6437 30.1069 29.6696 29.8428C29.6976 29.5637 29.8744 29.4009 30.1082 29.2738C31.3056 28.6217 32.4976 27.96 33.6982 27.3134C33.8932 27.2088 33.9568 27.0881 33.9557 26.8715C33.9471 25.3271 33.9493 23.7838 33.9514 22.2394C33.9514 21.7178 34.3168 21.3902 34.7694 21.4958C35.0928 21.5712 35.2835 21.8202 35.2846 22.1888C35.2878 23.1221 35.2846 24.0565 35.2857 24.9898H35.2846Z" fill="white"/>
<path d="M24.2454 5.39098C24.0989 5.3317 23.9447 5.28536 23.8068 5.20992C22.6773 4.58483 21.5479 3.95759 20.4249 3.32065C20.2514 3.22258 20.122 3.20641 19.9367 3.31203C18.7835 3.96945 17.6238 4.61393 16.462 5.25518C15.9943 5.51384 15.477 5.25842 15.436 4.75512C15.4113 4.45766 15.5438 4.23888 15.8068 4.09339C16.8565 3.50818 17.9041 2.92082 18.9538 2.33453C19.2986 2.14161 19.6467 1.95517 19.9862 1.75363C20.1166 1.67603 20.2126 1.66741 20.3527 1.74609C21.7041 2.50804 23.061 3.2603 24.4157 4.01687C24.5246 4.0783 24.641 4.13865 24.7272 4.22595C24.9287 4.42964 24.9697 4.68075 24.8705 4.94803C24.7789 5.19699 24.5397 5.35326 24.2476 5.39205L24.2454 5.39098Z" fill="white"/>
<circle cx="20.0356" cy="18.9695" r="5.09633" stroke="white" stroke-width="1.22611"/>
</svg>
